<?xml version="1.0" encoding="utf-8"?>
<!-- Generator: Adobe Illustrator 16.0.0, SVG Export Plug-In . SVG Version: 6.00 Build 0)  -->
<!DOCTYPE svg PUBLIC "-//W3C//DTD SVG 1.1//EN" "http://www.w3.org/Graphics/SVG/1.1/DTD/svg11.dtd">
<svg version="1.1" id="Layer_1" xmlns="http://www.w3.org/2000/svg" xmlns:xlink="http://www.w3.org/1999/xlink" x="0px" y="0px"
	 width="85px" height="80px" viewBox="0 0 85 80" enable-background="new 0 0 85 80" xml:space="preserve">
<g>
	<path fill="#1240AA" d="M35.51,64.34l-1.781-0.657c0.14-1.301,0.094-2.625-0.151-3.942l1.723-0.795
		c1.074-0.493,1.547-1.772,1.051-2.848l-1.005-2.181c-0.495-1.074-1.772-1.548-2.846-1.053l-1.724,0.795
		c-0.842-1.044-1.821-1.94-2.898-2.679l0.657-1.78c0.411-1.109-0.159-2.348-1.27-2.759l-2.255-0.832
		c-1.073-0.396-2.36,0.195-2.754,1.271l-0.659,1.779c-1.3-0.138-2.625-0.091-3.941,0.151l-0.794-1.722
		c-0.495-1.074-1.774-1.546-2.847-1.052l-2.183,1.004c-1.074,0.496-1.545,1.775-1.051,2.849l0.792,1.721
		c-1.042,0.845-1.938,1.822-2.677,2.902l-1.779-0.657c-1.074-0.402-2.36,0.191-2.759,1.269l-0.832,2.255
		c-0.198,0.538-0.175,1.121,0.064,1.643c0.241,0.52,0.669,0.916,1.206,1.112l1.783,0.66c-0.142,1.297-0.095,2.625,0.151,3.942
		L5.004,65.53c-1.076,0.494-1.545,1.771-1.051,2.845l1.006,2.185c0.494,1.074,1.772,1.546,2.847,1.051l1.723-0.794
		c0.844,1.044,1.819,1.939,2.9,2.679l-0.659,1.781c-0.2,0.537-0.177,1.119,0.064,1.641c0.238,0.521,0.668,0.919,1.204,1.118
		l2.255,0.831c0.536,0.199,1.121,0.176,1.641-0.062c0.523-0.241,0.919-0.669,1.115-1.207l0.659-1.783
		c1.3,0.142,2.626,0.096,3.943-0.148l0.792,1.722c0.494,1.073,1.773,1.546,2.847,1.05l2.183-1.004
		c1.076-0.495,1.547-1.771,1.051-2.848l-0.794-1.722c1.043-0.844,1.941-1.82,2.677-2.899l1.781,0.658
		c0.54,0.2,1.125,0.177,1.644-0.064c0.521-0.24,0.917-0.669,1.115-1.205l0.833-2.255C37.191,65.987,36.622,64.751,35.51,64.34z
		 M23.704,69.948c-1.125,0.518-2.319,0.78-3.549,0.78c-3.306,0-6.333-1.94-7.713-4.938c-1.957-4.253-0.091-9.305,4.158-11.263
		c1.125-0.518,2.317-0.779,3.545-0.779c3.306,0,6.336,1.938,7.717,4.937C29.819,62.938,27.955,67.989,23.704,69.948z"/>
	<path fill="#1240AA" d="M56.743,70.485l-0.993-0.366c0.079-0.724,0.053-1.462-0.083-2.195l0.959-0.442
		c0.6-0.273,0.862-0.984,0.587-1.585l-0.561-1.214c-0.277-0.601-0.987-0.864-1.585-0.587l-0.959,0.441
		c-0.47-0.58-1.015-1.08-1.613-1.491l0.364-0.991c0.229-0.618-0.088-1.306-0.707-1.536l-1.257-0.463
		c-0.598-0.222-1.312,0.108-1.534,0.706l-0.366,0.992c-0.723-0.077-1.462-0.052-2.194,0.084l-0.441-0.958
		c-0.277-0.599-0.988-0.861-1.587-0.586l-1.215,0.561c-0.6,0.276-0.86,0.987-0.585,1.586l0.441,0.959
		c-0.581,0.469-1.079,1.014-1.492,1.614l-0.991-0.365c-0.596-0.223-1.313,0.106-1.536,0.707l-0.464,1.255
		c-0.109,0.301-0.094,0.625,0.036,0.916c0.136,0.287,0.375,0.509,0.672,0.619l0.994,0.366c-0.079,0.725-0.055,1.463,0.083,2.195
		l-0.958,0.441c-0.6,0.277-0.862,0.988-0.586,1.586l0.562,1.217c0.273,0.597,0.985,0.861,1.583,0.586l0.958-0.442
		c0.47,0.582,1.016,1.079,1.615,1.49l-0.366,0.991c-0.111,0.299-0.098,0.625,0.036,0.914c0.134,0.29,0.372,0.512,0.672,0.624
		l1.255,0.463c0.3,0.109,0.622,0.097,0.913-0.036c0.29-0.134,0.511-0.372,0.622-0.671l0.366-0.995
		c0.723,0.08,1.461,0.055,2.194-0.082l0.443,0.959c0.273,0.597,0.985,0.862,1.583,0.585l1.216-0.56
		c0.6-0.277,0.862-0.986,0.587-1.586l-0.442-0.959c0.58-0.47,1.08-1.013,1.489-1.614l0.992,0.365c0.3,0.112,0.627,0.099,0.917-0.034
		c0.287-0.133,0.51-0.373,0.619-0.672l0.464-1.256C57.679,71.403,57.359,70.714,56.743,70.485z M50.169,73.61
		c-0.626,0.287-1.29,0.433-1.976,0.433c-1.84,0-3.526-1.08-4.294-2.75c-1.091-2.367-0.053-5.18,2.314-6.27
		c0.627-0.288,1.291-0.435,1.976-0.435c1.838,0,3.525,1.08,4.295,2.749C53.573,69.705,52.535,72.517,50.169,73.61z"/>
	<path fill="#1240AA" d="M79.251,32.702l-2.998-1.105c0.237-2.186,0.16-4.415-0.249-6.63l2.895-1.333
		c1.808-0.83,2.598-2.98,1.764-4.79l-1.688-3.668c-0.83-1.808-2.979-2.604-4.785-1.769l-2.898,1.337
		c-1.415-1.755-3.061-3.26-4.871-4.503l1.105-2.994c0.687-1.867-0.269-3.948-2.136-4.637l-3.791-1.402
		c-1.808-0.665-3.968,0.33-4.636,2.136L55.856,6.34c-2.186-0.235-4.414-0.158-6.627,0.251l-1.336-2.894
		c-0.83-1.808-2.979-2.601-4.787-1.769l-3.67,1.69c-1.808,0.833-2.6,2.982-1.77,4.789l1.337,2.895
		c-1.752,1.419-3.26,3.062-4.503,4.877l-2.991-1.106c-1.806-0.673-3.97,0.323-4.638,2.132l-1.4,3.792
		c-0.334,0.905-0.294,1.885,0.107,2.761c0.406,0.875,1.126,1.542,2.028,1.871l2.999,1.11c-0.24,2.183-0.163,4.415,0.251,6.629
		L27.961,34.7c-1.808,0.834-2.598,2.979-1.768,4.786l1.691,3.672c0.832,1.805,2.981,2.601,4.787,1.768l2.896-1.334
		c1.417,1.754,3.061,3.26,4.875,4.501l-1.105,2.995c-0.338,0.903-0.298,1.883,0.105,2.761c0.402,0.874,1.125,1.542,2.026,1.877
		l3.791,1.398c0.903,0.335,1.883,0.296,2.758-0.105c0.88-0.404,1.544-1.125,1.876-2.029l1.107-2.997
		c2.186,0.237,4.413,0.16,6.631-0.25l1.332,2.894c0.832,1.806,2.98,2.602,4.788,1.767l3.669-1.688c1.809-0.834,2.6-2.98,1.768-4.788
		l-1.334-2.895c1.753-1.42,3.261-3.061,4.5-4.876l2.998,1.109c0.904,0.335,1.885,0.295,2.763-0.109
		c0.871-0.402,1.537-1.125,1.871-2.027l1.4-3.791C82.073,35.472,81.117,33.392,79.251,32.702z M59.401,42.131
		c-1.893,0.87-3.898,1.312-5.966,1.312c-5.557,0-10.646-3.26-12.969-8.303c-3.292-7.149-0.156-15.643,6.989-18.935
		c1.891-0.871,3.897-1.312,5.964-1.312c5.557,0,10.647,3.258,12.973,8.3C69.683,30.345,66.547,38.838,59.401,42.131z"/>
</g>
</svg>
