<?xml version="1.0" encoding="utf-8"?>
<!-- Generator: Adobe Illustrator 16.0.0, SVG Export Plug-In . SVG Version: 6.00 Build 0)  -->
<!DOCTYPE svg PUBLIC "-//W3C//DTD SVG 1.1//EN" "http://www.w3.org/Graphics/SVG/1.1/DTD/svg11.dtd">
<svg version="1.1" id="Layer_1" xmlns="http://www.w3.org/2000/svg" xmlns:xlink="http://www.w3.org/1999/xlink" x="0px" y="0px"
	 width="85px" height="80px" viewBox="0 0 85 80" enable-background="new 0 0 85 80" xml:space="preserve">
<g>
	<g>
		<path fill="#06266F" d="M8.166,78c0,0.55,0.45,1,1,1h18.462c0.55,0,1-0.45,1-1V2c0-0.55-0.45-1-1-1H9.166c-0.55,0-1,0.45-1,1V78z
			 M13.435,9.309c0-0.55,0.45-1,1-1h7.923c0.55,0,1,0.45,1,1v14.535c0,0.55-0.45,1-1,1h-7.923c-0.55,0-1-0.45-1-1V9.309z
			 M13.435,31.56c0-0.55,0.45-1,1-1h7.923c0.55,0,1,0.45,1,1v4.86c0,0.55-0.45,1-1,1h-7.923c-0.55,0-1-0.45-1-1V31.56z
			 M18.394,61.771c2.743,0,4.964,2.218,4.964,4.959c0,2.736-2.219,4.962-4.964,4.962c-2.738,0-4.959-2.226-4.959-4.962
			C13.435,63.988,15.656,61.771,18.394,61.771z"/>
	</g>
	<g>
		<path fill="#06266F" d="M32.265,78c0,0.55,0.45,1,1,1h18.464c0.55,0,1-0.45,1-1V2c0-0.55-0.45-1-1-1H33.265c-0.55,0-1,0.45-1,1V78
			z M37.539,9.309c0-0.55,0.45-1,1-1h7.922c0.55,0,1,0.45,1,1v14.535c0,0.55-0.45,1-1,1h-7.922c-0.55,0-1-0.45-1-1V9.309z
			 M37.539,31.56c0-0.55,0.45-1,1-1h7.922c0.55,0,1,0.45,1,1v4.86c0,0.55-0.45,1-1,1h-7.922c-0.55,0-1-0.45-1-1V31.56z
			 M42.497,61.771c2.742,0,4.964,2.218,4.964,4.959c0,2.736-2.219,4.962-4.964,4.962c-2.737,0-4.958-2.226-4.958-4.962
			C37.539,63.988,39.759,61.771,42.497,61.771z"/>
	</g>
	<g>
		<path fill="#06266F" d="M57.367,1c-0.55,0-1,0.45-1,1v76c0,0.55,0.45,1,1,1h18.467c0.55,0,1-0.45,1-1V2c0-0.55-0.45-1-1-1H57.367z
			 M66.604,71.691c-2.742,0-4.963-2.226-4.963-4.962c0-2.741,2.221-4.959,4.963-4.959c2.74,0,4.959,2.218,4.959,4.959
			C71.562,69.466,69.344,71.691,66.604,71.691z M71.562,36.42c0,0.55-0.45,1-1,1h-7.922c-0.55,0-1-0.45-1-1v-4.86c0-0.55,0.45-1,1-1
			h7.922c0.55,0,1,0.45,1,1V36.42z M71.562,23.845c0,0.55-0.45,1-1,1h-7.922c-0.55,0-1-0.45-1-1V9.309c0-0.55,0.45-1,1-1h7.922
			c0.55,0,1,0.45,1,1V23.845z"/>
	</g>
</g>
</svg>
