<?xml version="1.0" encoding="utf-8"?>
<!-- Generator: Adobe Illustrator 16.0.0, SVG Export Plug-In . SVG Version: 6.00 Build 0)  -->
<!DOCTYPE svg PUBLIC "-//W3C//DTD SVG 1.1//EN" "http://www.w3.org/Graphics/SVG/1.1/DTD/svg11.dtd">
<svg version="1.1" id="Layer_1" xmlns="http://www.w3.org/2000/svg" xmlns:xlink="http://www.w3.org/1999/xlink" x="0px" y="0px"
	 width="85px" height="80px" viewBox="0 0 85 80" enable-background="new 0 0 85 80" xml:space="preserve">
<path fill="#1240AA" d="M81.267,37.331C79.985,17.861,64.426,2.298,44.956,1.02V0.931h-2.6h-2.599V1.02
	C20.287,2.298,4.724,17.861,3.445,37.331H3.356v2.6v2.6h0.089C4.724,62.001,20.287,77.56,39.757,78.841v0.09h2.599h2.6v-0.09
	c19.47-1.281,35.029-16.84,36.311-36.311h0.09v-2.6v-2.6H81.267z M27.769,9.432c-2.511,3.338-4.595,7.525-6.113,12.299h-7.791
	C17.256,16.441,22.072,12.164,27.769,9.432z M11.147,26.931h9.14c-0.696,3.285-1.137,6.774-1.279,10.399H8.655
	C8.929,33.67,9.793,30.171,11.147,26.931z M8.655,42.53h10.353c0.143,3.626,0.583,7.114,1.279,10.4h-9.14
	C9.793,49.691,8.929,46.192,8.655,42.53z M13.865,58.131h7.785c1.519,4.773,3.603,8.959,6.119,12.3
	C22.072,67.699,17.256,63.422,13.865,58.131z M39.757,73.396c-5.346-1.429-9.949-7.171-12.742-15.266h12.742V73.396z M39.757,52.931
	H25.556c-0.733-3.239-1.196-6.738-1.349-10.4h15.55V52.931z M39.757,37.331h-15.55c0.153-3.66,0.615-7.16,1.349-10.399h14.202
	V37.331z M39.757,21.731H27.015c2.793-8.097,7.396-13.838,12.742-15.262V21.731z M70.845,21.731h-7.779
	c-1.523-4.773-3.6-8.96-6.124-12.299C62.64,12.164,67.458,16.441,70.845,21.731z M44.956,6.469
	c5.343,1.424,9.948,7.165,12.741,15.262H44.956V6.469z M44.956,26.931h14.199c0.737,3.24,1.188,6.739,1.351,10.399h-15.55V26.931z
	 M44.956,42.53h15.55c-0.152,3.662-0.613,7.161-1.351,10.4H44.956V42.53z M44.956,73.396V58.131h12.741
	C54.904,66.226,50.299,71.968,44.956,73.396z M56.941,70.431c2.514-3.341,4.601-7.526,6.124-12.3h7.779
	C67.458,63.422,62.64,67.699,56.941,70.431z M73.567,52.931h-9.142c0.696-3.286,1.138-6.774,1.279-10.4h10.351
	C75.781,46.192,74.918,49.691,73.567,52.931z M65.705,37.331c-0.142-3.625-0.583-7.114-1.279-10.399h9.142
	c1.351,3.24,2.214,6.739,2.488,10.399H65.705z"/>
</svg>
