<?xml version="1.0" encoding="utf-8"?>
<!-- Generator: Adobe Illustrator 16.0.0, SVG Export Plug-In . SVG Version: 6.00 Build 0)  -->
<!DOCTYPE svg PUBLIC "-//W3C//DTD SVG 1.1//EN" "http://www.w3.org/Graphics/SVG/1.1/DTD/svg11.dtd">
<svg version="1.1" id="Layer_1" xmlns="http://www.w3.org/2000/svg" xmlns:xlink="http://www.w3.org/1999/xlink" x="0px" y="0px"
	 width="800px" height="150px" viewBox="0 0 800 150" enable-background="new 0 0 800 150" xml:space="preserve">
<g>
	<g>
		<g>
			<path fill="#0F0F0F" d="M169.315,20.444h16.259c4.432,0,7.584,1.314,9.457,3.941c1.099,1.554,1.648,3.345,1.648,5.376
				c0,2.372-0.674,4.317-2.021,5.836c-0.7,0.802-1.707,1.536-3.021,2.201c1.928,0.734,3.371,1.562,4.326,2.483
				c1.689,1.639,2.534,3.9,2.534,6.784c0,2.423-0.764,4.616-2.292,6.578c-2.284,2.936-5.915,4.403-10.895,4.403h-15.995V20.444z
				 M183.67,36.341c2.173,0,3.863-0.299,5.069-0.896c1.897-0.938,2.846-2.627,2.846-5.068c0-2.457-1.008-4.112-3.026-4.966
				c-1.138-0.478-2.828-0.717-5.07-0.717h-9.182v11.647H183.67z M185.393,53.696c3.152,0,5.4-0.905,6.743-2.714
				c0.845-1.143,1.267-2.525,1.267-4.147c0-2.73-1.232-4.591-3.695-5.58c-1.31-0.529-3.041-0.793-5.194-0.793h-10.207v13.234
				H185.393z"/>
			<path fill="#0F0F0F" d="M203.795,20.444h4.685v5.221h-4.685V20.444z M203.795,30.761h4.685v27.287h-4.685V30.761z"/>
			<path fill="#0F0F0F" d="M215.058,20.316h4.48V33.96c1.011-1.314,2.219-2.317,3.624-3.008c1.404-0.691,2.929-1.037,4.574-1.037
				c3.426,0,6.206,1.174,8.339,3.52s3.199,5.807,3.199,10.38c0,4.335-1.054,7.936-3.161,10.803c-2.106,2.867-5.027,4.3-8.762,4.3
				c-2.09,0-3.854-0.504-5.293-1.51c-0.857-0.597-1.774-1.553-2.75-2.867v3.507h-4.25V20.316z M232.676,51.878
				c1.241-1.979,1.862-4.591,1.862-7.833c0-2.884-0.621-5.273-1.862-7.167c-1.241-1.894-3.069-2.841-5.484-2.841
				c-2.105,0-3.951,0.776-5.535,2.33c-1.583,1.553-2.375,4.113-2.375,7.679c0,2.577,0.325,4.667,0.976,6.272
				c1.216,3.02,3.484,4.53,6.807,4.53C229.564,54.848,231.435,53.858,232.676,51.878z"/>
			<path fill="#0F0F0F" d="M244.726,20.444h4.608v37.603h-4.608V20.444z"/>
			<path fill="#0F0F0F" d="M256.245,20.444h4.685v5.221h-4.685V20.444z M256.245,30.761h4.685v27.287h-4.685V30.761z"/>
			<path fill="#0F0F0F" d="M287.756,33.369c2.423,2.353,3.635,5.813,3.635,10.383c0,4.417-1.068,8.065-3.203,10.946
				c-2.135,2.882-5.448,4.322-9.938,4.322c-3.745,0-6.719-1.274-8.922-3.823c-2.202-2.549-3.303-5.972-3.303-10.269
				c0-4.604,1.16-8.27,3.482-10.998c2.321-2.728,5.439-4.091,9.354-4.091C282.368,29.839,285.333,31.015,287.756,33.369z
				 M284.896,51.588c1.122-2.31,1.684-4.879,1.684-7.708c0-2.557-0.405-4.636-1.215-6.238c-1.282-2.523-3.493-3.784-6.631-3.784
				c-2.785,0-4.809,1.074-6.074,3.222c-1.266,2.148-1.899,4.738-1.899,7.772c0,2.915,0.633,5.343,1.899,7.286
				c1.265,1.943,3.273,2.915,6.024,2.915C281.702,55.052,283.773,53.898,284.896,51.588z"/>
			<path fill="#0F0F0F" d="M297.97,22.979h4.659v7.654h4.377v3.762h-4.377v17.893c0,0.956,0.324,1.596,0.973,1.92
				c0.358,0.188,0.955,0.282,1.791,0.282c0.222,0,0.461-0.006,0.717-0.017c0.256-0.011,0.555-0.041,0.896-0.086v3.661
				c-0.53,0.154-1.08,0.265-1.651,0.333c-0.572,0.068-1.19,0.103-1.856,0.103c-2.15,0-3.608-0.551-4.376-1.651
				s-1.152-2.53-1.152-4.288V34.395h-3.712v-3.762h3.712V22.979z"/>
			<path fill="#0F0F0F" d="M311.613,20.316h4.607v14.027c1.092-1.382,2.073-2.355,2.944-2.918c1.484-0.973,3.336-1.459,5.555-1.459
				c3.976,0,6.671,1.391,8.088,4.172c0.768,1.519,1.152,3.626,1.152,6.323v17.585h-4.736V40.769c0-2.013-0.256-3.489-0.768-4.428
				c-0.836-1.501-2.406-2.253-4.709-2.253c-1.912,0-3.645,0.657-5.197,1.972c-1.553,1.314-2.33,3.797-2.33,7.449v14.54h-4.607
				V20.316z"/>
			<path fill="#0F0F0F" d="M357.703,31.387c1.814,0.913,3.197,2.095,4.147,3.545c0.916,1.382,1.526,2.995,1.832,4.838
				c0.271,1.263,0.407,3.276,0.407,6.041h-19.94c0.085,2.79,0.736,5.027,1.956,6.713c1.219,1.685,3.106,2.528,5.663,2.528
				c2.388,0,4.292-0.797,5.715-2.391c0.796-0.925,1.36-1.997,1.692-3.215h4.531c-0.12,1.008-0.517,2.129-1.19,3.367
				c-0.674,1.237-1.426,2.248-2.255,3.033c-1.389,1.365-3.108,2.286-5.158,2.765c-1.101,0.272-2.346,0.409-3.734,0.409
				c-3.392,0-6.267-1.242-8.624-3.725c-2.357-2.482-3.536-5.96-3.536-10.431c0-4.402,1.188-7.978,3.562-10.725
				c2.375-2.748,5.478-4.121,9.312-4.121C354.014,30.018,355.888,30.475,357.703,31.387z M359.354,42.151
				c-0.187-1.997-0.618-3.593-1.295-4.787c-1.252-2.218-3.342-3.328-6.27-3.328c-2.098,0-3.858,0.764-5.279,2.291
				c-1.422,1.527-2.175,3.468-2.259,5.824H359.354z"/>
			<path fill="#0F0F0F" d="M388.035,32.091c1.937,1.502,3.102,4.087,3.495,7.756h-4.479c-0.274-1.689-0.896-3.093-1.869-4.211
				c-0.973-1.118-2.535-1.677-4.685-1.677c-2.935,0-5.034,1.432-6.297,4.295c-0.819,1.858-1.229,4.151-1.229,6.877
				c0,2.745,0.58,5.054,1.741,6.929c1.16,1.875,2.986,2.812,5.478,2.812c1.911,0,3.426-0.582,4.544-1.747
				c1.117-1.165,1.89-2.758,2.317-4.781h4.479c-0.512,3.635-1.792,6.293-3.84,7.974c-2.048,1.681-4.667,2.521-7.859,2.521
				c-3.583,0-6.442-1.31-8.575-3.929s-3.2-5.892-3.2-9.816c0-4.813,1.169-8.558,3.507-11.238c2.338-2.679,5.316-4.019,8.934-4.019
				C383.585,29.839,386.099,30.589,388.035,32.091z"/>
			<path fill="#0F0F0F" d="M410.831,41.456c1.059-0.136,1.767-0.58,2.124-1.329c0.204-0.411,0.307-1.001,0.307-1.772
				c0-1.576-0.559-2.72-1.673-3.431c-1.116-0.711-2.713-1.066-4.79-1.066c-2.4,0-4.104,0.652-5.109,1.955
				c-0.561,0.721-0.927,1.792-1.098,3.216h-4.3c0.085-3.389,1.18-5.746,3.285-7.072c2.104-1.326,4.547-1.989,7.324-1.989
				c3.223,0,5.838,0.614,7.85,1.843c1.994,1.229,2.991,3.141,2.991,5.734v15.795c0,0.478,0.099,0.862,0.295,1.151
				c0.195,0.29,0.61,0.434,1.241,0.434c0.205,0,0.436-0.013,0.691-0.038c0.257-0.026,0.529-0.063,0.819-0.115v3.404
				c-0.718,0.205-1.264,0.333-1.639,0.384c-0.375,0.052-0.888,0.077-1.536,0.077c-1.587,0-2.739-0.563-3.455-1.689
				c-0.375-0.597-0.64-1.442-0.794-2.534c-0.938,1.229-2.287,2.295-4.045,3.199c-1.757,0.904-3.694,1.356-5.811,1.356
				c-2.542,0-4.619-0.771-6.232-2.313c-1.612-1.542-2.418-3.473-2.418-5.791c0-2.539,0.793-4.508,2.38-5.906
				c1.587-1.397,3.669-2.258,6.246-2.583L410.831,41.456z M401.129,53.903c0.974,0.767,2.126,1.149,3.456,1.149
				c1.621,0,3.189-0.375,4.709-1.125c2.561-1.244,3.841-3.279,3.841-6.108v-3.706c-0.563,0.36-1.286,0.66-2.172,0.899
				c-0.885,0.24-1.754,0.411-2.605,0.513l-2.785,0.357c-1.668,0.222-2.923,0.571-3.765,1.048c-1.425,0.8-2.138,2.077-2.138,3.831
				C399.67,52.09,400.157,53.137,401.129,53.903z"/>
			<path fill="#0F0F0F" d="M448.579,20.444h5.749l13.649,37.603h-5.581l-3.926-11.263h-14.753l-4.077,11.263h-5.222L448.579,20.444z
				 M457.025,42.638l-5.79-16.613l-6.016,16.613H457.025z"/>
			<path fill="#0F0F0F" d="M471.958,30.632h4.377v3.891c1.296-1.604,2.672-2.756,4.122-3.456c1.449-0.7,3.062-1.049,4.837-1.049
				c3.892,0,6.519,1.356,7.885,4.069c0.75,1.485,1.126,3.61,1.126,6.375v17.585h-4.685V40.769c0-1.672-0.247-3.021-0.741-4.044
				c-0.82-1.706-2.305-2.56-4.455-2.56c-1.092,0-1.988,0.111-2.687,0.333c-1.265,0.375-2.373,1.126-3.328,2.252
				c-0.769,0.905-1.268,1.839-1.498,2.803c-0.23,0.964-0.346,2.343-0.346,4.135v14.36h-4.607V30.632z"/>
			<path fill="#0F0F0F" d="M520.977,33.369c2.423,2.353,3.636,5.813,3.636,10.383c0,4.417-1.068,8.065-3.204,10.946
				c-2.134,2.882-5.446,4.322-9.938,4.322c-3.745,0-6.719-1.274-8.922-3.823s-3.305-5.972-3.305-10.269
				c0-4.604,1.161-8.27,3.483-10.998c2.32-2.728,5.438-4.091,9.354-4.091C515.589,29.839,518.553,31.015,520.977,33.369z
				 M518.117,51.588c1.121-2.31,1.683-4.879,1.683-7.708c0-2.557-0.405-4.636-1.216-6.238c-1.282-2.523-3.492-3.784-6.631-3.784
				c-2.784,0-4.81,1.074-6.075,3.222c-1.266,2.148-1.897,4.738-1.897,7.772c0,2.915,0.632,5.343,1.897,7.286
				s3.273,2.915,6.025,2.915C514.922,55.052,516.993,53.898,518.117,51.588z"/>
			<path fill="#0F0F0F" d="M530.269,30.632h4.377v3.891c1.298-1.604,2.672-2.756,4.123-3.456c1.45-0.7,3.062-1.049,4.838-1.049
				c3.891,0,6.518,1.356,7.883,4.069c0.751,1.485,1.127,3.61,1.127,6.375v17.585h-4.684V40.769c0-1.672-0.248-3.021-0.743-4.044
				c-0.819-1.706-2.303-2.56-4.453-2.56c-1.094,0-1.989,0.111-2.688,0.333c-1.264,0.375-2.373,1.126-3.328,2.252
				c-0.768,0.905-1.267,1.839-1.498,2.803c-0.229,0.964-0.345,2.343-0.345,4.135v14.36h-4.608V30.632z"/>
			<path fill="#0F0F0F" d="M579.289,33.369c2.423,2.353,3.635,5.813,3.635,10.383c0,4.417-1.067,8.065-3.202,10.946
				c-2.136,2.882-5.448,4.322-9.938,4.322c-3.746,0-6.719-1.274-8.922-3.823c-2.204-2.549-3.305-5.972-3.305-10.269
				c0-4.604,1.161-8.27,3.482-10.998c2.322-2.728,5.439-4.091,9.354-4.091C573.901,29.839,576.866,31.015,579.289,33.369z
				 M576.429,51.588c1.122-2.31,1.684-4.879,1.684-7.708c0-2.557-0.406-4.636-1.215-6.238c-1.284-2.523-3.494-3.784-6.633-3.784
				c-2.784,0-4.81,1.074-6.075,3.222c-1.265,2.148-1.897,4.738-1.897,7.772c0,2.915,0.633,5.343,1.897,7.286
				c1.266,1.943,3.274,2.915,6.025,2.915C573.234,55.052,575.306,53.898,576.429,51.588z"/>
			<path fill="#0F0F0F" d="M588.582,30.632h4.556v3.891c1.093-1.348,2.082-2.329,2.97-2.943c1.519-1.042,3.243-1.562,5.17-1.562
				c2.185,0,3.943,0.537,5.273,1.612c0.751,0.614,1.434,1.519,2.048,2.713c1.024-1.468,2.228-2.556,3.609-3.264
				c1.383-0.708,2.936-1.062,4.66-1.062c3.687,0,6.193,1.331,7.525,3.993c0.716,1.433,1.074,3.362,1.074,5.785v18.251h-4.787V39.002
				c0-1.826-0.457-3.08-1.369-3.762c-0.912-0.683-2.026-1.024-3.34-1.024c-1.809,0-3.366,0.606-4.672,1.818
				s-1.959,3.233-1.959,6.066v15.947h-4.684V40.155c0-1.86-0.223-3.217-0.665-4.07c-0.701-1.28-2.006-1.92-3.917-1.92
				c-1.741,0-3.324,0.675-4.749,2.022c-1.425,1.348-2.137,3.788-2.137,7.321v14.54h-4.607V30.632z"/>
			<path fill="#0F0F0F" d="M646.944,41.456c1.059-0.136,1.767-0.58,2.124-1.329c0.205-0.411,0.307-1.001,0.307-1.772
				c0-1.576-0.559-2.72-1.673-3.431c-1.115-0.711-2.712-1.066-4.789-1.066c-2.402,0-4.104,0.652-5.109,1.955
				c-0.562,0.721-0.928,1.792-1.099,3.216h-4.301c0.085-3.389,1.181-5.746,3.286-7.072s4.546-1.989,7.324-1.989
				c3.222,0,5.837,0.614,7.85,1.843c1.993,1.229,2.991,3.141,2.991,5.734v15.795c0,0.478,0.098,0.862,0.294,1.151
				s0.61,0.434,1.242,0.434c0.204,0,0.435-0.013,0.69-0.038c0.257-0.026,0.529-0.063,0.82-0.115v3.404
				c-0.718,0.205-1.265,0.333-1.639,0.384c-0.376,0.052-0.888,0.077-1.536,0.077c-1.587,0-2.739-0.563-3.456-1.689
				c-0.375-0.597-0.64-1.442-0.793-2.534c-0.939,1.229-2.287,2.295-4.045,3.199s-3.695,1.356-5.812,1.356
				c-2.543,0-4.62-0.771-6.232-2.313c-1.612-1.542-2.419-3.473-2.419-5.791c0-2.539,0.794-4.508,2.381-5.906
				c1.587-1.397,3.669-2.258,6.245-2.583L646.944,41.456z M637.242,53.903c0.973,0.767,2.125,1.149,3.455,1.149
				c1.621,0,3.191-0.375,4.71-1.125c2.561-1.244,3.841-3.279,3.841-6.108v-3.706c-0.562,0.36-1.286,0.66-2.172,0.899
				c-0.885,0.24-1.754,0.411-2.605,0.513l-2.785,0.357c-1.668,0.222-2.924,0.571-3.766,1.048c-1.425,0.8-2.137,2.077-2.137,3.831
				C635.783,52.09,636.271,53.137,637.242,53.903z"/>
		</g>
		<g>
			<path fill="#424242" d="M181.802,94.508h-2.499c-0.767,0-3.537,0.124-3.537,0.124l-0.098-1.211l1.805-0.496l-0.667-2.67
				l-0.519-1.484h-5.442l-0.792,2.597l-0.248,1.558l1.731,0.248l-0.124,1.335h-2.127c-0.915,0-3.339,0.124-3.339,0.124l-0.099-1.211
				l1.558-0.422l1.064-2.447l4.428-13.481l1.434-0.247l5.096,13.999l0.964,2.103l1.534,0.248L181.802,94.508z M171.289,87.533
				l4.501-0.1l-2.325-6.702L171.289,87.533z"/>
			<path fill="#424242" d="M183.283,82.189c0,0,1.781,0.101,2.276,0.101h0.891l0.47,0.444l0.148,1.583
				c0.593-1.138,1.879-2.251,3.759-2.251c3.413,0,4.18,2.201,4.18,5.615v2.696c0,1.236,0.173,2.621,0.173,2.621l1.929,0.174
				l-0.173,1.459c0,0-1.212-0.124-3.191-0.124c-0.494,0-2.522,0.124-2.522,0.124l-0.124-1.236l1.658-0.396
				c0.123-0.543,0.247-1.261,0.247-1.879v-3.438c0-2.078-0.47-4.106-2.548-4.106c-1.954,0-3.141,1.731-3.166,4.155v2.647
				c0,1.236,0.173,2.621,0.173,2.621l1.929,0.174l-0.173,1.459c0,0-1.212-0.124-3.191-0.124c-0.495,0-2.746,0.124-2.746,0.124
				l-0.124-1.236l1.88-0.396c0,0,0.198-1.187,0.248-1.756v-5.467c0-0.495-0.248-1.879-0.248-1.879l-1.88-0.396L183.283,82.189z"/>
			<path fill="#424242" d="M210.068,94.756c-3.76,0-5.689-2.572-5.689-6.332c0-3.785,1.929-6.357,5.689-6.357
				c3.81,0,5.689,2.523,5.689,6.357C215.757,92.184,213.827,94.756,210.068,94.756z M210.068,83.477
				c-2.548,0-3.364,2.399-3.364,4.947c0,2.547,0.816,4.922,3.364,4.922s3.364-2.375,3.364-4.922
				C213.432,85.876,212.616,83.477,210.068,83.477z"/>
			<path fill="#424242" d="M221.79,84.366c0.964-1.582,2.201-2.3,3.982-2.3c0.916,0,1.682,0.248,1.682,0.248l-0.248,4.081
				l-1.435-0.073v-1.312c0-0.148-0.173-0.718-0.346-1.238h-0.099c-2.275,0.027-3.215,1.386-3.314,3.712v2.894
				c0,1.236,0.173,2.621,0.173,2.621l2.423,0.174l-0.173,1.459c0,0-1.707-0.124-3.686-0.124c-0.495,0-2.745,0.124-2.745,0.124
				l-0.124-1.236l1.88-0.396c0,0,0.248-1.385,0.248-1.879v-5.344c0-0.495-0.248-1.879-0.248-1.879l-1.88-0.396l0.124-1.312
				c0,0,1.781,0.101,2.275,0.101h0.89l0.471,0.444L221.79,84.366z"/>
			<path fill="#424242" d="M237.421,83.477c0.742,0.768,1.138,1.83,1.138,3.068c0,2.694-1.904,4.476-4.774,4.476
				c-0.619,0-1.162-0.073-1.682-0.223c-0.47,0.545-0.667,0.89-0.667,1.04c0,0.493,0.47,0.642,2.325,0.865
				c1.683,0.222,3.834,0.445,4.774,0.742c0.717,0.223,1.113,0.964,1.113,2.151c0,2.598-2.82,4.724-6.283,4.724
				c-3.215,0-4.897-1.236-4.897-3.585c0-0.446,0.94-1.46,2.25-2.499c-0.89-0.371-1.261-0.939-1.261-1.806
				c0-0.346,0.569-0.966,1.781-1.979c-1.385-0.74-2.227-2.127-2.227-3.906c0-2.697,1.904-4.479,4.774-4.479
				c0.99,0,1.855,0.224,2.597,0.595l3.018-0.472v1.436L237.421,83.477z M230.594,96.464c0,1.681,1.088,2.448,3.463,2.448
				c2.028,0,3.488-1.04,3.488-2.55c0-0.74-0.223-1.014-0.965-1.111l-3.216-0.421c-0.667-0.074-1.236-0.173-1.707-0.297
				C230.792,95.597,230.594,95.992,230.594,96.464z M231.164,86.545c0,2.151,0.866,3.215,2.622,3.215
				c1.756,0,2.622-1.063,2.622-3.215c0-2.152-0.865-3.217-2.622-3.217C232.054,83.328,231.164,84.417,231.164,86.545z"/>
			<path fill="#424242" d="M249.045,92.554c-0.644,1.263-2.325,2.202-3.933,2.202c-2.202,0-3.587-1.236-3.587-3.166
				c0-1.781,1.088-2.919,3.315-3.29l3.958-0.668v-0.816c0-2.3-0.766-3.413-2.325-3.413c-0.816,0-1.732,0.198-2.351,0.495
				l-0.173,1.038v1.015l-1.435,0.074l-0.272-3.363c1.484-0.396,2.993-0.595,4.477-0.595c2.943,0,4.082,1.46,4.082,5.244v3.067
				c0,1.236,0.247,2.621,0.247,2.621l1.707,0.174l-0.173,1.459c0,0-1.212-0.124-3.19-0.124L249.045,92.554z M245.261,89.562
				c-0.99,0.173-1.559,0.792-1.559,1.658c0,1.236,0.643,1.953,1.805,1.953c1.657,0,3.042-1.188,3.29-2.795v-1.484L245.261,89.562z"
				/>
			<path fill="#424242" d="M254.435,82.189c0,0,1.781,0.101,2.276,0.101h0.891l0.47,0.444l0.148,1.583
				c0.594-1.138,1.879-2.251,3.759-2.251c3.413,0,4.18,2.201,4.18,5.615v2.696c0,1.236,0.174,2.621,0.174,2.621l1.929,0.174
				l-0.173,1.459c0,0-1.212-0.124-3.191-0.124c-0.494,0-2.522,0.124-2.522,0.124l-0.124-1.236l1.658-0.396
				c0.124-0.543,0.247-1.261,0.247-1.879v-3.438c0-2.078-0.47-4.106-2.548-4.106c-1.954,0-3.141,1.731-3.166,4.155v2.647
				c0,1.236,0.173,2.621,0.173,2.621l1.929,0.174l-0.173,1.459c0,0-1.212-0.124-3.19-0.124c-0.495,0-2.746,0.124-2.746,0.124
				l-0.124-1.236l1.881-0.396c0,0,0.198-1.187,0.247-1.756v-5.467c0-0.495-0.247-1.879-0.247-1.879l-1.881-0.396L254.435,82.189z"/>
			<path fill="#424242" d="M275.704,94.632c0,0-1.211-0.124-3.19-0.124c-0.494,0-2.746,0.124-2.746,0.124l-0.123-1.236l1.879-0.396
				c0,0,0.248-1.385,0.248-1.879v-5.344c0-0.495-0.248-1.879-0.248-1.879l-1.879-0.396l0.123-1.312c0,0,1.781,0.101,2.276,0.101
				h1.435l0.47,0.444c0,0-0.173,2.547-0.173,3.784v3.859c0,1.236,0.173,2.621,0.173,2.621l1.93,0.174L275.704,94.632z
				 M274.245,78.307c0,0.94-0.519,1.583-1.459,1.583c-0.939,0-1.459-0.643-1.459-1.583c0-0.939,0.52-1.606,1.459-1.606
				C273.701,76.7,274.245,77.292,274.245,78.307z"/>
			<path fill="#424242" d="M278.226,82.216c0,0,1.855,0.074,2.35,0.074h5.985l0.173,1.434l-2.127,2.696l-3.017,4.577
				c-0.223,0.346-0.816,1.434-1.237,2.225h3.092c0.124,0,0.865-0.073,1.459-0.147c0.173-0.346,0.372-0.743,0.545-1.262
				c0.024-0.074,0.074-0.52,0.148-0.99l1.435,0.148l-0.223,3.142l-0.445,0.471c0,0-2.226-0.075-2.721-0.075h-6.011l-0.173-1.434
				c0,0,1.979-2.178,2.35-2.721l3.067-4.552c0.223-0.346,0.841-1.46,1.237-2.227h-3.018c-0.149,0-0.767,0.074-1.311,0.148
				c-0.149,0.272-0.569,1.261-0.594,1.534l-0.1,0.963l-1.435-0.098l0.124-3.438L278.226,82.216z"/>
			<path fill="#424242" d="M296.702,92.554c-0.643,1.263-2.325,2.202-3.933,2.202c-2.201,0-3.586-1.236-3.586-3.166
				c0-1.781,1.088-2.919,3.314-3.29l3.958-0.668v-0.816c0-2.3-0.767-3.413-2.325-3.413c-0.816,0-1.731,0.198-2.35,0.495
				l-0.173,1.038v1.015l-1.435,0.074l-0.272-3.363c1.484-0.396,2.993-0.595,4.478-0.595c2.943,0,4.081,1.46,4.081,5.244v3.067
				c0,1.236,0.247,2.621,0.247,2.621l1.707,0.174l-0.173,1.459c0,0-1.212-0.124-3.19-0.124L296.702,92.554z M292.917,89.562
				c-0.99,0.173-1.558,0.792-1.558,1.658c0,1.236,0.643,1.953,1.806,1.953c1.657,0,3.042-1.188,3.29-2.795v-1.484L292.917,89.562z"
				/>
			<path fill="#424242" d="M309.537,93.47c-0.792,0.619-1.682,1.286-2.918,1.286c-2.35,0-3.067-1.384-3.067-4.105v-7.025h-1.904
				l-0.074-1.038c0.816-0.272,1.41-0.371,1.979-0.718c0.199-0.247,1.138-2.227,1.138-2.227l0.866,0.098v2.55h3.463l-0.124,1.335
				h-3.339v7.618c0,1.236,0.42,1.93,1.335,1.93c0.891,0,1.955-0.717,1.955-0.717L309.537,93.47z"/>
			<path fill="#424242" d="M316.783,94.632c0,0-1.212-0.124-3.19-0.124c-0.495,0-2.746,0.124-2.746,0.124l-0.124-1.236l1.88-0.396
				c0,0,0.248-1.385,0.248-1.879v-5.344c0-0.495-0.248-1.879-0.248-1.879l-1.88-0.396l0.124-1.312c0,0,1.78,0.101,2.276,0.101h1.435
				l0.47,0.444c0,0-0.173,2.547-0.173,3.784v3.859c0,1.236,0.173,2.621,0.173,2.621l1.929,0.174L316.783,94.632z M315.324,78.307
				c0,0.94-0.52,1.583-1.46,1.583c-0.939,0-1.459-0.643-1.459-1.583c0-0.939,0.52-1.606,1.459-1.606
				C314.779,76.7,315.324,77.292,315.324,78.307z"/>
			<path fill="#424242" d="M324.202,94.756c-3.76,0-5.689-2.572-5.689-6.332c0-3.785,1.929-6.357,5.689-6.357
				c3.809,0,5.689,2.523,5.689,6.357C329.892,92.184,327.962,94.756,324.202,94.756z M324.202,83.477
				c-2.547,0-3.364,2.399-3.364,4.947c0,2.547,0.816,4.922,3.364,4.922c2.548,0,3.364-2.375,3.364-4.922
				C327.566,85.876,326.75,83.477,324.202,83.477z"/>
			<path fill="#424242" d="M332.14,82.189c0,0,1.781,0.101,2.276,0.101h0.89l0.47,0.444l0.149,1.583
				c0.594-1.138,1.879-2.251,3.759-2.251c3.414,0,4.18,2.201,4.18,5.615v2.696c0,1.236,0.173,2.621,0.173,2.621l1.929,0.174
				l-0.173,1.459c0,0-1.212-0.124-3.191-0.124c-0.495,0-2.523,0.124-2.523,0.124l-0.124-1.236l1.657-0.396
				c0.124-0.543,0.247-1.261,0.247-1.879v-3.438c0-2.078-0.47-4.106-2.547-4.106c-1.955,0-3.142,1.731-3.167,4.155v2.647
				c0,1.236,0.173,2.621,0.173,2.621l1.929,0.174l-0.173,1.459c0,0-1.211-0.124-3.19-0.124c-0.495,0-2.746,0.124-2.746,0.124
				l-0.123-1.236l1.88-0.396c0,0,0.198-1.187,0.247-1.756v-5.467c0-0.495-0.247-1.879-0.247-1.879l-1.88-0.396L332.14,82.189z"/>
			<path fill="#424242" d="M360.706,93.47c-0.792,0.619-1.682,1.286-2.919,1.286c-2.35,0-3.067-1.384-3.067-4.105v-7.025h-1.904
				l-0.074-1.038c0.816-0.272,1.41-0.371,1.979-0.718c0.198-0.247,1.138-2.227,1.138-2.227l0.866,0.098v2.55h3.462l-0.123,1.335
				h-3.34v7.618c0,1.236,0.42,1.93,1.335,1.93c0.891,0,1.954-0.717,1.954-0.717L360.706,93.47z"/>
			<path fill="#424242" d="M369.634,92.554c-0.643,1.263-2.325,2.202-3.934,2.202c-2.201,0-3.586-1.236-3.586-3.166
				c0-1.781,1.088-2.919,3.314-3.29l3.958-0.668v-0.816c0-2.3-0.767-3.413-2.325-3.413c-0.816,0-1.731,0.198-2.35,0.495
				l-0.172,1.038v1.015l-1.435,0.074l-0.272-3.363c1.484-0.396,2.993-0.595,4.477-0.595c2.943,0,4.081,1.46,4.081,5.244v3.067
				c0,1.236,0.248,2.621,0.248,2.621l1.707,0.174l-0.173,1.459c0,0-1.212-0.124-3.191-0.124L369.634,92.554z M365.849,89.562
				c-0.989,0.173-1.558,0.792-1.558,1.658c0,1.236,0.644,1.953,1.806,1.953c1.658,0,3.042-1.188,3.29-2.795v-1.484L365.849,89.562z"
				/>
			<path fill="#424242" d="M382.914,82.487l-0.297,3.537l-1.434-0.074V85.06c0-0.246-0.173-0.841-0.347-1.41
				c-0.52-0.223-0.965-0.297-1.657-0.297c-1.212,0-2.003,0.595-2.003,1.608c0,2.523,6.308,2.275,6.308,6.184
				c0,2.598-1.658,3.611-4.354,3.611c-2.449,0-4.081-0.965-4.081-0.965l0.272-3.363l1.435,0.074v0.939
				c0,0.246,0.173,0.89,0.371,1.459c0.569,0.445,1.287,0.594,2.078,0.594c1.385,0,2.251-0.569,2.251-1.88
				c0-2.597-6.258-2.25-6.258-6.258c0-2.077,1.707-3.29,4.007-3.29C380.392,82.066,381.727,82.24,382.914,82.487z"/>
			<path fill="#424242" d="M385.312,75.709c0,0,1.781,0.099,2.275,0.099h1.435l0.47,0.445c-0.074,0.768-0.173,2.622-0.173,3.784
				v10.34c0,1.087,0.123,2.425,0.148,2.621l1.93,0.174l-0.173,1.459c0,0-1.212-0.124-3.191-0.124c-0.495,0-2.746,0.124-2.746,0.124
				l-0.124-1.236l1.905-0.396c0.049-0.222,0.248-1.385,0.248-1.879V79.296c0-0.495-0.248-1.879-0.248-1.879l-1.88-0.396
				L385.312,75.709z M392.609,83.502l0.124-1.286c0,0,1.658,0.074,2.152,0.074c1.979,0,3.141-0.125,3.141-0.125l0.075,1.436
				l-1.854,0.199c-0.817,0.444-2.004,1.185-2.449,1.656l-2.003,2.151l3.388,3.71c0.272,0.297,1.41,1.089,2.226,1.708l1.558,0.147
				l-0.173,1.459c0,0-1.211-0.124-3.19-0.124l-2.523,0.051l-0.124-1.237l1.41-0.272l-1.262-1.385l-3.512-3.71l4.082-4.256
				L392.609,83.502z"/>
			<path fill="#424242" d="M409.476,87.831l-0.421,0.814h-7.396c0.074,2.228,1.138,4.503,3.364,4.503
				c2.103,0,3.686-1.014,3.686-1.014l0.692,1.136c0,0-1.584,1.485-4.378,1.485c-3.735,0-5.688-2.572-5.688-6.308
				c0-3.709,1.755-6.382,5.391-6.382C408.19,82.066,409.476,84.366,409.476,87.831z M401.686,87.409l5.489-0.42
				c0,0,0.024-0.371,0.024-0.495c0-1.755-0.814-3.142-2.57-3.142C402.599,83.353,401.857,85.356,401.686,87.409z"/>
			<path fill="#424242" d="M423.499,94.632c0,0-1.213-0.124-3.19-0.124l-0.347-1.978c-0.495,1.138-2.25,2.226-3.562,2.226
				c-3.092,0-4.972-2.399-4.972-6.356c0-3.909,1.979-6.333,5.195-6.333c1.037,0,1.78,0.123,3.091,0.595v-3.365
				c0-0.495-0.247-1.879-0.247-1.879l-2.177-0.396l0.125-1.312c0,0,2.076,0.099,2.571,0.099h1.436l0.469,0.445
				c0,0-0.172,2.547-0.172,3.784v10.34c0,1.236,0.246,2.621,0.246,2.621l1.707,0.174L423.499,94.632z M419.714,84.467
				c-0.939-0.619-1.806-0.892-2.844-0.892c-2.004,0-3.166,1.781-3.166,4.849c0,2.943,1.088,4.749,2.869,4.749
				c1.979,0,3.141-1.411,3.141-3.785V84.467z"/>
			<path fill="#424242" d="M448.947,83.748c-0.47,1.04-1.089,2.5-1.236,2.87l-2.845,7.89h-1.683l-2.918-8.287l-2.819,8.287h-1.657
				c0,0-3.043-7.963-3.24-8.509c-0.125-0.345-0.569-1.409-1.016-2.227l-1.014-0.271l0.125-1.286c0,0,1.211,0.074,1.706,0.074
				c1.979,0,3.71-0.125,3.71-0.125l0.073,1.436l-1.978,0.172c0.223,0.842,0.47,1.781,0.594,2.104l2.127,6.085l3.141-9.671h0.965
				l3.315,9.671l2.053-6.134c0.124-0.322,0.321-1.263,0.494-2.055l-2.103-0.271l0.124-1.286c0,0,1.831,0.074,2.324,0.074
				c1.98,0,2.796-0.125,2.796-0.125l0.074,1.436L448.947,83.748z"/>
			<path fill="#424242" d="M457.354,94.632c0,0-1.213-0.124-3.19-0.124c-0.495,0-2.746,0.124-2.746,0.124l-0.123-1.236l1.88-0.396
				c0,0,0.247-1.385,0.247-1.879v-5.344c0-0.495-0.247-1.879-0.247-1.879l-1.88-0.396l0.123-1.312c0,0,1.781,0.101,2.275,0.101
				h1.435l0.471,0.444c0,0-0.173,2.547-0.173,3.784v3.859c0,1.236,0.173,2.621,0.173,2.621l1.93,0.174L457.354,94.632z
				 M455.896,78.307c0,0.94-0.521,1.583-1.461,1.583c-0.939,0-1.46-0.643-1.46-1.583c0-0.939,0.521-1.606,1.46-1.606
				C455.351,76.7,455.896,77.292,455.896,78.307z"/>
			<path fill="#424242" d="M466.555,93.47c-0.791,0.619-1.682,1.286-2.918,1.286c-2.35,0-3.066-1.384-3.066-4.105v-7.025h-1.905
				l-0.074-1.038c0.815-0.272,1.41-0.371,1.979-0.718c0.196-0.247,1.136-2.227,1.136-2.227l0.866,0.098v2.55h3.465l-0.125,1.335
				h-3.34v7.618c0,1.236,0.422,1.93,1.337,1.93c0.89,0,1.954-0.717,1.954-0.717L466.555,93.47z"/>
			<path fill="#424242" d="M467.468,75.709c0,0,1.781,0.099,2.276,0.099h1.434l0.471,0.445c-0.074,0.768-0.173,2.622-0.173,3.784
				v3.909c0.667-0.99,1.854-1.881,3.537-1.881c3.413,0,4.18,2.201,4.18,5.615v2.696c0,1.236,0.174,2.621,0.174,2.621l1.929,0.174
				l-0.172,1.459c0,0-1.213-0.124-3.192-0.124c-0.494,0-2.522,0.124-2.522,0.124l-0.124-1.236l1.658-0.396
				c0.123-0.543,0.246-1.261,0.246-1.879v-3.438c0-2.078-0.47-4.106-2.547-4.106c-1.955,0-3.143,1.731-3.166,4.155v2.647
				c0,1.087,0.124,2.425,0.148,2.621l1.929,0.174l-0.174,1.459c0,0-1.211-0.124-3.189-0.124c-0.496,0-2.746,0.124-2.746,0.124
				l-0.123-1.236l1.904-0.396c0.049-0.222,0.247-1.385,0.247-1.879V79.296c0-0.495-0.247-1.879-0.247-1.879l-1.88-0.396
				L467.468,75.709z"/>
			<path fill="#424242" d="M496.208,92.554c-0.645,1.263-2.326,2.202-3.933,2.202c-2.202,0-3.588-1.236-3.588-3.166
				c0-1.781,1.089-2.919,3.314-3.29l3.958-0.668v-0.816c0-2.3-0.767-3.413-2.326-3.413c-0.814,0-1.73,0.198-2.349,0.495
				l-0.174,1.038v1.015l-1.435,0.074l-0.272-3.363c1.484-0.396,2.993-0.595,4.478-0.595c2.944,0,4.082,1.46,4.082,5.244v3.067
				c0,1.236,0.247,2.621,0.247,2.621l1.707,0.174l-0.174,1.459c0,0-1.212-0.124-3.189-0.124L496.208,92.554z M492.423,89.562
				c-0.99,0.173-1.559,0.792-1.559,1.658c0,1.236,0.643,1.953,1.806,1.953c1.657,0,3.043-1.188,3.29-2.795v-1.484L492.423,89.562z"
				/>
			<path fill="#424242" d="M505.382,84.366c0.966-1.582,2.203-2.3,3.982-2.3c0.916,0,1.683,0.248,1.683,0.248l-0.247,4.081
				l-1.436-0.073v-1.312c0-0.148-0.173-0.718-0.347-1.238h-0.098c-2.277,0.027-3.217,1.386-3.314,3.712v2.894
				c0,1.236,0.173,2.621,0.173,2.621l2.425,0.174l-0.174,1.459c0,0-1.707-0.124-3.687-0.124c-0.494,0-2.745,0.124-2.745,0.124
				l-0.123-1.236l1.88-0.396c0,0,0.247-1.385,0.247-1.879v-5.344c0-0.495-0.247-1.879-0.247-1.879l-1.88-0.396l0.123-1.312
				c0,0,1.781,0.101,2.275,0.101h0.891l0.47,0.444L505.382,84.366z"/>
			<path fill="#424242" d="M521.83,82.933l-0.248,3.092l-1.435-0.074V85.06c0-0.173-0.074-0.495-0.173-0.841
				c-0.719-0.594-1.312-0.742-2.028-0.742c-2.474,0-3.365,2.474-3.365,4.947c0,2.473,0.892,4.725,3.365,4.725
				c1.928,0,3.462-0.892,3.462-0.892l0.693,1.164c0,0-1.609,1.335-4.181,1.335c-3.784,0-5.664-2.548-5.664-6.332
				c0-3.785,1.904-6.357,5.689-6.357C519.405,82.066,520.345,82.438,521.83,82.933z"/>
			<path fill="#424242" d="M523.658,75.709c0,0,1.782,0.099,2.275,0.099h1.435l0.47,0.445c-0.074,0.768-0.172,2.622-0.172,3.784
				v3.909c0.667-0.99,1.854-1.881,3.536-1.881c3.414,0,4.181,2.201,4.181,5.615v2.696c0,1.236,0.173,2.621,0.173,2.621l1.93,0.174
				l-0.173,1.459c0,0-1.213-0.124-3.191-0.124c-0.495,0-2.523,0.124-2.523,0.124l-0.123-1.236l1.657-0.396
				c0.124-0.543,0.247-1.261,0.247-1.879v-3.438c0-2.078-0.47-4.106-2.547-4.106c-1.954,0-3.142,1.731-3.166,4.155v2.647
				c0,1.087,0.123,2.425,0.148,2.621l1.928,0.174l-0.173,1.459c0,0-1.211-0.124-3.189-0.124c-0.495,0-2.745,0.124-2.745,0.124
				l-0.125-1.236l1.904-0.396c0.05-0.222,0.248-1.385,0.248-1.879V79.296c0-0.495-0.248-1.879-0.248-1.879l-1.88-0.396
				L523.658,75.709z"/>
			<path fill="#424242" d="M544.929,94.632c0,0-1.212-0.124-3.192-0.124c-0.493,0-2.744,0.124-2.744,0.124l-0.124-1.236l1.88-0.396
				c0,0,0.247-1.385,0.247-1.879v-5.344c0-0.495-0.247-1.879-0.247-1.879l-1.88-0.396l0.124-1.312c0,0,1.78,0.101,2.275,0.101h1.435
				l0.47,0.444c0,0-0.172,2.547-0.172,3.784v3.859c0,1.236,0.172,2.621,0.172,2.621l1.93,0.174L544.929,94.632z M543.469,78.307
				c0,0.94-0.52,1.583-1.46,1.583c-0.939,0-1.458-0.643-1.458-1.583c0-0.939,0.519-1.606,1.458-1.606
				C542.925,76.7,543.469,77.292,543.469,78.307z"/>
			<path fill="#424242" d="M556.701,83.748c-0.47,1.04-1.088,2.5-1.236,2.87l-2.845,7.89h-1.658c0,0-3.042-7.963-3.239-8.509
				c-0.124-0.345-0.569-1.409-1.014-2.227l-1.509-0.271l0.122-1.286c0,0,1.708,0.074,2.201,0.074c1.979,0,3.217-0.125,3.217-0.125
				l0.074,1.436l-1.485,0.172c0.224,0.842,0.472,1.781,0.595,2.104l2.127,6.085l2.054-6.134c0.123-0.322,0.321-1.263,0.494-2.055
				l-1.855-0.271l0.125-1.286c0,0,1.583,0.074,2.077,0.074c1.979,0,3.042-0.125,3.042-0.125l0.073,1.436L556.701,83.748z"/>
			<path fill="#424242" d="M565.48,94.632c0,0-1.212-0.124-3.192-0.124c-0.493,0-2.745,0.124-2.745,0.124l-0.123-1.236l1.88-0.396
				c0,0,0.247-1.385,0.247-1.879v-5.344c0-0.495-0.247-1.879-0.247-1.879l-1.88-0.396l0.123-1.312c0,0,1.781,0.101,2.276,0.101
				h1.434l0.471,0.444c0,0-0.173,2.547-0.173,3.784v3.859c0,1.236,0.173,2.621,0.173,2.621l1.93,0.174L565.48,94.632z
				 M564.021,78.307c0,0.94-0.521,1.583-1.461,1.583c-0.939,0-1.459-0.643-1.459-1.583c0-0.939,0.52-1.606,1.459-1.606
				C563.477,76.7,564.021,77.292,564.021,78.307z"/>
			<path fill="#424242" d="M567.234,82.189c0,0,1.782,0.101,2.276,0.101h0.891l0.47,0.444l0.148,1.583
				c0.594-1.138,1.881-2.251,3.76-2.251c3.414,0,4.18,2.201,4.18,5.615v2.696c0,1.236,0.174,2.621,0.174,2.621l1.93,0.174
				l-0.173,1.459c0,0-1.212-0.124-3.191-0.124c-0.495,0-2.522,0.124-2.522,0.124l-0.124-1.236l1.656-0.396
				c0.124-0.543,0.248-1.261,0.248-1.879v-3.438c0-2.078-0.471-4.106-2.547-4.106c-1.955,0-3.143,1.731-3.167,4.155v2.647
				c0,1.236,0.173,2.621,0.173,2.621l1.93,0.174l-0.173,1.459c0,0-1.212-0.124-3.19-0.124c-0.495,0-2.747,0.124-2.747,0.124
				l-0.122-1.236l1.879-0.396c0,0,0.199-1.187,0.248-1.756v-5.467c0-0.495-0.248-1.879-0.248-1.879l-1.879-0.396L567.234,82.189z"/>
			<path fill="#424242" d="M591.299,83.477c0.743,0.768,1.138,1.83,1.138,3.068c0,2.694-1.903,4.476-4.772,4.476
				c-0.618,0-1.163-0.073-1.683-0.223c-0.47,0.545-0.669,0.89-0.669,1.04c0,0.493,0.472,0.642,2.326,0.865
				c1.682,0.222,3.834,0.445,4.773,0.742c0.718,0.223,1.114,0.964,1.114,2.151c0,2.598-2.82,4.724-6.284,4.724
				c-3.215,0-4.897-1.236-4.897-3.585c0-0.446,0.939-1.46,2.252-2.499c-0.891-0.371-1.261-0.939-1.261-1.806
				c0-0.346,0.566-0.966,1.779-1.979c-1.385-0.74-2.227-2.127-2.227-3.906c0-2.697,1.905-4.479,4.775-4.479
				c0.988,0,1.854,0.224,2.597,0.595l3.018-0.472v1.436L591.299,83.477z M584.472,96.464c0,1.681,1.089,2.448,3.464,2.448
				c2.028,0,3.487-1.04,3.487-2.55c0-0.74-0.223-1.014-0.964-1.111l-3.217-0.421c-0.667-0.074-1.236-0.173-1.706-0.297
				C584.671,95.597,584.472,95.992,584.472,96.464z M585.041,86.545c0,2.151,0.866,3.215,2.623,3.215
				c1.756,0,2.621-1.063,2.621-3.215c0-2.152-0.865-3.217-2.621-3.217C585.932,83.328,585.041,84.417,585.041,86.545z"/>
			<path fill="#424242" d="M595.526,93.025c0-0.966,0.569-1.708,1.534-1.708c1.162,0,1.558,1.039,1.558,2.202
				c0,1.829-1.062,3.884-3.239,4.353l-0.248-0.791c1.063-0.445,1.757-1.285,1.757-2.325
				C595.997,94.682,595.526,93.914,595.526,93.025z"/>
			<path fill="#424242" d="M614.398,92.554c-0.645,1.263-2.326,2.202-3.933,2.202c-2.202,0-3.588-1.236-3.588-3.166
				c0-1.781,1.089-2.919,3.315-3.29l3.957-0.668v-0.816c0-2.3-0.767-3.413-2.325-3.413c-0.816,0-1.731,0.198-2.351,0.495
				l-0.173,1.038v1.015l-1.435,0.074l-0.271-3.363c1.483-0.396,2.993-0.595,4.477-0.595c2.943,0,4.082,1.46,4.082,5.244v3.067
				c0,1.236,0.247,2.621,0.247,2.621l1.707,0.174l-0.174,1.459c0,0-1.211-0.124-3.189-0.124L614.398,92.554z M610.613,89.562
				c-0.989,0.173-1.559,0.792-1.559,1.658c0,1.236,0.643,1.953,1.807,1.953c1.656,0,3.042-1.188,3.289-2.795v-1.484L610.613,89.562z
				"/>
			<path fill="#424242" d="M619.788,82.189c0,0,1.782,0.101,2.275,0.101h0.891l0.471,0.444l0.147,1.583
				c0.594-1.138,1.881-2.251,3.761-2.251c3.414,0,4.18,2.201,4.18,5.615v2.696c0,1.236,0.174,2.621,0.174,2.621l1.93,0.174
				l-0.174,1.459c0,0-1.213-0.124-3.191-0.124c-0.495,0-2.522,0.124-2.522,0.124l-0.125-1.236l1.658-0.396
				c0.124-0.543,0.248-1.261,0.248-1.879v-3.438c0-2.078-0.471-4.106-2.548-4.106c-1.954,0-3.142,1.731-3.166,4.155v2.647
				c0,1.236,0.173,2.621,0.173,2.621l1.93,0.174l-0.174,1.459c0,0-1.213-0.124-3.189-0.124c-0.496,0-2.747,0.124-2.747,0.124
				l-0.123-1.236l1.88-0.396c0,0,0.197-1.187,0.248-1.756v-5.467c0-0.495-0.248-1.879-0.248-1.879l-1.88-0.396L619.788,82.189z"/>
			<path fill="#424242" d="M642.741,92.554c-0.644,1.263-2.326,2.202-3.933,2.202c-2.202,0-3.588-1.236-3.588-3.166
				c0-1.781,1.089-2.919,3.314-3.29l3.958-0.668v-0.816c0-2.3-0.767-3.413-2.326-3.413c-0.814,0-1.73,0.198-2.349,0.495
				l-0.174,1.038v1.015l-1.435,0.074l-0.272-3.363c1.484-0.396,2.993-0.595,4.478-0.595c2.944,0,4.081,1.46,4.081,5.244v3.067
				c0,1.236,0.248,2.621,0.248,2.621l1.707,0.174l-0.174,1.459c0,0-1.212-0.124-3.189-0.124L642.741,92.554z M638.956,89.562
				c-0.99,0.173-1.56,0.792-1.56,1.658c0,1.236,0.644,1.953,1.807,1.953c1.658,0,3.042-1.188,3.29-2.795v-1.484L638.956,89.562z"/>
			<path fill="#424242" d="M647.734,75.709c0,0,1.781,0.099,2.275,0.099h1.435l0.47,0.445c-0.074,0.768-0.172,2.622-0.172,3.784
				v10.34c0,1.087,0.123,2.425,0.147,2.621l1.93,0.174l-0.173,1.459c0,0-1.213-0.124-3.19-0.124c-0.496,0-2.747,0.124-2.747,0.124
				l-0.123-1.236l1.904-0.396c0.05-0.222,0.247-1.385,0.247-1.879V79.296c0-0.495-0.247-1.879-0.247-1.879l-1.88-0.396
				L647.734,75.709z"/>
			<path fill="#424242" d="M663.169,86.197c0.173-0.47,0.494-1.607,0.667-2.397l-1.806-0.298l0.124-1.286
				c0,0,1.658,0.074,2.152,0.074c1.88,0,2.844-0.125,2.844-0.125l0.074,1.436l-1.311,0.199c-0.495,1.014-1.088,2.323-1.286,2.818
				l-5.095,13.702l-3.983-0.271l0.198-1.434l0.989,0.024c0.321,0,1.138-0.148,1.657-0.248c0.421-0.594,0.792-1.311,0.94-1.682
				l0.791-2.202l-3.536-8.235c-0.248-0.618-0.792-1.658-1.262-2.473l-1.212-0.298l0.122-1.286c0,0,1.534,0.074,2.029,0.074
				c1.979,0,3.389-0.125,3.389-0.125l0.074,1.436l-1.78,0.172c0.173,0.743,0.419,1.634,0.618,2.104l2.448,6.061L663.169,86.197z"/>
			<path fill="#424242" d="M669.473,82.216c0,0,1.855,0.074,2.351,0.074h5.985l0.174,1.434l-2.127,2.696l-3.019,4.577
				c-0.222,0.346-0.815,1.434-1.236,2.225h3.092c0.124,0,0.866-0.073,1.459-0.147c0.174-0.346,0.371-0.743,0.545-1.262
				c0.024-0.074,0.073-0.52,0.147-0.99l1.436,0.148l-0.223,3.142l-0.445,0.471c0,0-2.226-0.075-2.721-0.075h-6.011l-0.173-1.434
				c0,0,1.978-2.178,2.35-2.721l3.067-4.552c0.222-0.346,0.84-1.46,1.236-2.227h-3.018c-0.148,0-0.767,0.074-1.312,0.148
				c-0.147,0.272-0.568,1.261-0.593,1.534l-0.099,0.963l-1.435-0.098l0.123-3.438L669.473,82.216z"/>
			<path fill="#424242" d="M686.267,94.632c0,0-1.212-0.124-3.191-0.124c-0.494,0-2.745,0.124-2.745,0.124l-0.124-1.236l1.88-0.396
				c0,0,0.248-1.385,0.248-1.879v-5.344c0-0.495-0.248-1.879-0.248-1.879l-1.88-0.396l0.124-1.312c0,0,1.781,0.101,2.275,0.101
				h1.435l0.47,0.444c0,0-0.172,2.547-0.172,3.784v3.859c0,1.236,0.172,2.621,0.172,2.621l1.931,0.174L686.267,94.632z
				 M684.808,78.307c0,0.94-0.52,1.583-1.46,1.583s-1.459-0.643-1.459-1.583c0-0.939,0.519-1.606,1.459-1.606
				C684.264,76.7,684.808,77.292,684.808,78.307z"/>
			<path fill="#424242" d="M688.022,82.189c0,0,1.78,0.101,2.274,0.101h0.891l0.471,0.444l0.147,1.583
				c0.595-1.138,1.881-2.251,3.761-2.251c3.413,0,4.18,2.201,4.18,5.615v2.696c0,1.236,0.173,2.621,0.173,2.621l1.931,0.174
				l-0.174,1.459c0,0-1.212-0.124-3.19-0.124c-0.495,0-2.522,0.124-2.522,0.124l-0.125-1.236l1.656-0.396
				c0.125-0.543,0.248-1.261,0.248-1.879v-3.438c0-2.078-0.47-4.106-2.547-4.106c-1.954,0-3.142,1.731-3.166,4.155v2.647
				c0,1.236,0.172,2.621,0.172,2.621l1.931,0.174l-0.174,1.459c0,0-1.212-0.124-3.189-0.124c-0.495,0-2.746,0.124-2.746,0.124
				l-0.124-1.236l1.879-0.396c0,0,0.199-1.187,0.248-1.756v-5.467c0-0.495-0.248-1.879-0.248-1.879l-1.879-0.396L688.022,82.189z"/>
			<path fill="#424242" d="M712.087,83.477c0.741,0.768,1.139,1.83,1.139,3.068c0,2.694-1.905,4.476-4.774,4.476
				c-0.618,0-1.164-0.073-1.682-0.223c-0.471,0.545-0.668,0.89-0.668,1.04c0,0.493,0.47,0.642,2.324,0.865
				c1.682,0.222,3.834,0.445,4.773,0.742c0.719,0.223,1.114,0.964,1.114,2.151c0,2.598-2.82,4.724-6.283,4.724
				c-3.216,0-4.897-1.236-4.897-3.585c0-0.446,0.939-1.46,2.251-2.499c-0.891-0.371-1.262-0.939-1.262-1.806
				c0-0.346,0.569-0.966,1.781-1.979c-1.385-0.74-2.226-2.127-2.226-3.906c0-2.697,1.904-4.479,4.773-4.479
				c0.988,0,1.854,0.224,2.598,0.595l3.017-0.472v1.436L712.087,83.477z M705.26,96.464c0,1.681,1.088,2.448,3.463,2.448
				c2.028,0,3.487-1.04,3.487-2.55c0-0.74-0.222-1.014-0.965-1.111l-3.215-0.421c-0.667-0.074-1.236-0.173-1.706-0.297
				C705.458,95.597,705.26,95.992,705.26,96.464z M705.829,86.545c0,2.151,0.865,3.215,2.622,3.215s2.622-1.063,2.622-3.215
				c0-2.152-0.865-3.217-2.622-3.217C706.72,83.328,705.829,84.417,705.829,86.545z"/>
			<path fill="#424242" d="M716.314,93.025c0-0.966,0.568-1.708,1.534-1.708c1.161,0,1.558,1.039,1.558,2.202
				c0,1.829-1.063,3.884-3.24,4.353l-0.248-0.791c1.064-0.445,1.757-1.285,1.757-2.325
				C716.784,94.682,716.314,93.914,716.314,93.025z"/>
			<path fill="#424242" d="M735.186,92.554c-0.643,1.263-2.326,2.202-3.933,2.202c-2.202,0-3.586-1.236-3.586-3.166
				c0-1.781,1.087-2.919,3.313-3.29l3.957-0.668v-0.816c0-2.3-0.766-3.413-2.324-3.413c-0.816,0-1.732,0.198-2.351,0.495
				l-0.173,1.038v1.015l-1.435,0.074l-0.271-3.363c1.483-0.396,2.993-0.595,4.476-0.595c2.944,0,4.083,1.46,4.083,5.244v3.067
				c0,1.236,0.247,2.621,0.247,2.621l1.706,0.174l-0.174,1.459c0,0-1.211-0.124-3.189-0.124L735.186,92.554z M731.401,89.562
				c-0.99,0.173-1.559,0.792-1.559,1.658c0,1.236,0.644,1.953,1.806,1.953c1.657,0,3.042-1.188,3.289-2.795v-1.484L731.401,89.562z"
				/>
			<path fill="#424242" d="M740.574,82.189c0,0,1.782,0.101,2.276,0.101h0.891l0.47,0.444l0.148,1.583
				c0.595-1.138,1.881-2.251,3.76-2.251c3.414,0,4.181,2.201,4.181,5.615v2.696c0,1.236,0.173,2.621,0.173,2.621l1.93,0.174
				l-0.173,1.459c0,0-1.213-0.124-3.191-0.124c-0.495,0-2.523,0.124-2.523,0.124l-0.123-1.236l1.656-0.396
				c0.125-0.543,0.248-1.261,0.248-1.879v-3.438c0-2.078-0.471-4.106-2.547-4.106c-1.955,0-3.143,1.731-3.167,4.155v2.647
				c0,1.236,0.173,2.621,0.173,2.621l1.93,0.174l-0.173,1.459c0,0-1.213-0.124-3.19-0.124c-0.495,0-2.747,0.124-2.747,0.124
				l-0.123-1.236l1.88-0.396c0,0,0.199-1.187,0.248-1.756v-5.467c0-0.495-0.248-1.879-0.248-1.879l-1.88-0.396L740.574,82.189z"/>
			<path fill="#424242" d="M767.979,94.632c0,0-1.213-0.124-3.191-0.124l-0.346-1.978c-0.495,1.138-2.251,2.226-3.562,2.226
				c-3.092,0-4.972-2.399-4.972-6.356c0-3.909,1.979-6.333,5.195-6.333c1.037,0,1.78,0.123,3.092,0.595v-3.365
				c0-0.495-0.248-1.879-0.248-1.879l-2.177-0.396l0.125-1.312c0,0,2.076,0.099,2.571,0.099h1.436l0.469,0.445
				c0,0-0.173,2.547-0.173,3.784v10.34c0,1.236,0.247,2.621,0.247,2.621l1.708,0.174L767.979,94.632z M764.195,84.467
				c-0.94-0.619-1.807-0.892-2.846-0.892c-2.003,0-3.165,1.781-3.165,4.849c0,2.943,1.088,4.749,2.869,4.749
				c1.979,0,3.142-1.411,3.142-3.785V84.467z"/>
			<path fill="#424242" d="M178.438,117.854c0,3.81-2.4,6.58-5.689,6.58c-0.841,0-1.756-0.224-2.647-0.618v1.88
				c0,1.236,0.173,2.621,0.173,2.621l2.424,0.174l-0.173,1.458c0,0-1.682-0.123-3.661-0.123c-0.743,0-2.523,0.123-2.523,0.123
				l-0.124-1.236l1.633-0.396c0,0,0.247-1.188,0.247-1.756v-11.106c0-0.494-0.247-1.88-0.247-1.88l-1.879-0.396l0.123-1.311
				c0,0,1.781,0.098,2.276,0.098h0.891l0.47,0.446l0.148,1.583c0.52-1.212,2.152-2.252,3.488-2.252
				C176.582,111.744,178.438,113.972,178.438,117.854z M170.102,117.162v4.897c0.866,0.595,1.732,0.891,2.499,0.891
				c2.325,0,3.611-1.781,3.611-5.046c0-3.068-1.039-4.651-3.042-4.651C171.314,113.253,170.102,114.812,170.102,117.162z"/>
			<path fill="#424242" d="M184.471,114.045c0.964-1.582,2.201-2.301,3.982-2.301c0.916,0,1.683,0.248,1.683,0.248l-0.248,4.08
				l-1.435-0.073v-1.311c0-0.148-0.173-0.717-0.346-1.236h-0.099c-2.275,0.024-3.215,1.384-3.314,3.71v2.894
				c0,1.237,0.173,2.622,0.173,2.622l2.424,0.173l-0.173,1.46c0,0-1.707-0.124-3.686-0.124c-0.495,0-2.746,0.124-2.746,0.124
				l-0.123-1.237l1.88-0.396c0,0,0.247-1.385,0.247-1.879v-5.344c0-0.494-0.247-1.88-0.247-1.88l-1.88-0.396l0.123-1.311
				c0,0,1.781,0.098,2.276,0.098h0.891l0.47,0.446L184.471,114.045z"/>
			<path fill="#424242" d="M201.487,117.508l-0.421,0.816h-7.396c0.074,2.227,1.138,4.502,3.364,4.502
				c2.103,0,3.686-1.014,3.686-1.014l0.693,1.138c0,0-1.583,1.484-4.378,1.484c-3.735,0-5.689-2.572-5.689-6.308
				c0-3.711,1.756-6.383,5.392-6.383C200.201,111.744,201.487,114.045,201.487,117.508z M193.696,117.087l5.491-0.42
				c0,0,0.024-0.372,0.024-0.494c0-1.757-0.816-3.142-2.572-3.142C194.611,113.031,193.869,115.035,193.696,117.087z"/>
			<path fill="#424242" d="M211.33,112.166l-0.297,3.536l-1.434-0.074v-0.89c0-0.248-0.173-0.842-0.346-1.41
				c-0.52-0.223-0.965-0.297-1.658-0.297c-1.212,0-2.003,0.593-2.003,1.607c0,2.523,6.308,2.275,6.308,6.184
				c0,2.597-1.658,3.612-4.354,3.612c-2.449,0-4.082-0.966-4.082-0.966l0.272-3.363l1.435,0.074v0.94
				c0,0.247,0.172,0.891,0.371,1.46c0.569,0.444,1.287,0.592,2.078,0.592c1.385,0,2.251-0.567,2.251-1.879
				c0-2.597-6.258-2.251-6.258-6.258c0-2.078,1.707-3.291,4.007-3.291C208.807,111.744,210.142,111.918,211.33,112.166z"/>
			<path fill="#424242" d="M224.24,117.508l-0.421,0.816h-7.396c0.074,2.227,1.138,4.502,3.364,4.502
				c2.103,0,3.686-1.014,3.686-1.014l0.693,1.138c0,0-1.583,1.484-4.378,1.484c-3.735,0-5.689-2.572-5.689-6.308
				c0-3.711,1.756-6.383,5.392-6.383C222.954,111.744,224.24,114.045,224.24,117.508z M216.448,117.087l5.491-0.42
				c0,0,0.024-0.372,0.024-0.494c0-1.757-0.816-3.142-2.572-3.142C217.364,113.031,216.622,115.035,216.448,117.087z"/>
			<path fill="#424242" d="M229.977,114.045c0.964-1.582,2.202-2.301,3.982-2.301c0.916,0,1.683,0.248,1.683,0.248l-0.248,4.08
				l-1.435-0.073v-1.311c0-0.148-0.173-0.717-0.346-1.236h-0.1c-2.275,0.024-3.215,1.384-3.314,3.71v2.894
				c0,1.237,0.173,2.622,0.173,2.622l2.424,0.173l-0.173,1.46c0,0-1.708-0.124-3.686-0.124c-0.495,0-2.746,0.124-2.746,0.124
				l-0.124-1.237l1.88-0.396c0,0,0.248-1.385,0.248-1.879v-5.344c0-0.494-0.248-1.88-0.248-1.88l-1.88-0.396l0.124-1.311
				c0,0,1.781,0.098,2.276,0.098h0.89l0.47,0.446L229.977,114.045z"/>
			<path fill="#424242" d="M248.13,113.427c-0.47,1.039-1.088,2.498-1.237,2.868l-2.844,7.892h-1.657c0,0-3.042-7.965-3.24-8.509
				c-0.124-0.346-0.569-1.41-1.015-2.226l-1.509-0.272l0.124-1.286c0,0,1.707,0.073,2.202,0.073c1.979,0,3.215-0.122,3.215-0.122
				l0.074,1.434l-1.484,0.174c0.223,0.841,0.47,1.78,0.594,2.103l2.127,6.085l2.053-6.135c0.124-0.321,0.322-1.262,0.496-2.053
				l-1.855-0.272l0.123-1.286c0,0,1.583,0.073,2.078,0.073c1.979,0,3.042-0.122,3.042-0.122l0.074,1.434L248.13,113.427z"/>
			<path fill="#424242" d="M256.909,124.311c0,0-1.212-0.124-3.19-0.124c-0.495,0-2.746,0.124-2.746,0.124l-0.124-1.237l1.88-0.396
				c0,0,0.248-1.385,0.248-1.879v-5.344c0-0.494-0.248-1.88-0.248-1.88l-1.88-0.396l0.124-1.311c0,0,1.781,0.098,2.276,0.098h1.435
				l0.47,0.446c0,0-0.173,2.548-0.173,3.784v3.858c0,1.237,0.173,2.622,0.173,2.622l1.929,0.173L256.909,124.311z M255.45,107.985
				c0,0.939-0.52,1.583-1.459,1.583s-1.459-0.644-1.459-1.583s0.519-1.607,1.459-1.607
				C254.906,106.378,255.45,106.972,255.45,107.985z"/>
			<path fill="#424242" d="M258.665,111.869c0,0,1.781,0.098,2.275,0.098h0.89l0.47,0.446l0.148,1.583
				c0.594-1.138,1.88-2.252,3.76-2.252c3.414,0,4.18,2.203,4.18,5.616v2.695c0,1.237,0.173,2.622,0.173,2.622l1.93,0.173
				l-0.174,1.46c0,0-1.211-0.124-3.19-0.124c-0.495,0-2.523,0.124-2.523,0.124l-0.124-1.237l1.657-0.396
				c0.124-0.544,0.248-1.261,0.248-1.879v-3.438c0-2.079-0.47-4.107-2.548-4.107c-1.954,0-3.141,1.732-3.166,4.157v2.646
				c0,1.237,0.173,2.622,0.173,2.622l1.929,0.173l-0.173,1.46c0,0-1.212-0.124-3.19-0.124c-0.495,0-2.746,0.124-2.746,0.124
				l-0.124-1.237l1.879-0.396c0,0,0.198-1.188,0.248-1.757v-5.466c0-0.494-0.248-1.88-0.248-1.88l-1.879-0.396L258.665,111.869z"/>
			<path fill="#424242" d="M282.729,113.155c0.742,0.766,1.138,1.83,1.138,3.066c0,2.697-1.905,4.477-4.774,4.477
				c-0.619,0-1.162-0.073-1.682-0.222c-0.47,0.545-0.668,0.891-0.668,1.039c0,0.495,0.47,0.643,2.325,0.865
				c1.682,0.224,3.834,0.445,4.774,0.741c0.717,0.223,1.113,0.965,1.113,2.152c0,2.598-2.82,4.726-6.283,4.726
				c-3.216,0-4.897-1.237-4.897-3.587c0-0.444,0.94-1.459,2.251-2.499c-0.89-0.37-1.262-0.939-1.262-1.806
				c0-0.347,0.569-0.964,1.781-1.979c-1.385-0.742-2.227-2.127-2.227-3.908c0-2.695,1.905-4.478,4.774-4.478
				c0.99,0,1.855,0.223,2.597,0.594l3.018-0.469v1.435L282.729,113.155z M275.902,126.141c0,1.683,1.088,2.448,3.463,2.448
				c2.028,0,3.488-1.037,3.488-2.546c0-0.743-0.223-1.014-0.965-1.115l-3.216-0.419c-0.668-0.074-1.237-0.174-1.707-0.298
				C276.1,125.274,275.902,125.671,275.902,126.141z M276.471,116.222c0,2.152,0.866,3.216,2.622,3.216
				c1.756,0,2.622-1.063,2.622-3.216c0-2.151-0.865-3.216-2.622-3.216C277.361,113.006,276.471,114.096,276.471,116.222z"/>
			<path fill="#424242" d="M299.966,123.147c-0.792,0.618-1.682,1.287-2.918,1.287c-2.35,0-3.067-1.386-3.067-4.106v-7.024h-1.904
				l-0.075-1.04c0.817-0.271,1.411-0.37,1.979-0.717c0.199-0.247,1.138-2.227,1.138-2.227l0.865,0.101v2.546h3.463l-0.124,1.337
				h-3.34v7.617c0,1.237,0.42,1.93,1.336,1.93c0.891,0,1.955-0.717,1.955-0.717L299.966,123.147z"/>
			<path fill="#424242" d="M300.88,105.389c0,0,1.781,0.098,2.276,0.098h1.435l0.47,0.444c-0.074,0.769-0.173,2.624-0.173,3.786
				v3.907c0.667-0.989,1.855-1.88,3.538-1.88c3.413,0,4.18,2.203,4.18,5.616v2.695c0,1.237,0.173,2.622,0.173,2.622l1.93,0.173
				l-0.173,1.46c0,0-1.212-0.124-3.191-0.124c-0.494,0-2.522,0.124-2.522,0.124l-0.124-1.237l1.657-0.396
				c0.124-0.544,0.247-1.261,0.247-1.879v-3.438c0-2.079-0.47-4.107-2.547-4.107c-1.954,0-3.142,1.732-3.167,4.157v2.646
				c0,1.089,0.124,2.424,0.148,2.622l1.93,0.173l-0.174,1.46c0,0-1.211-0.124-3.19-0.124c-0.496,0-2.746,0.124-2.746,0.124
				l-0.124-1.237l1.904-0.396c0.05-0.223,0.248-1.385,0.248-1.879v-11.825c0-0.493-0.248-1.879-0.248-1.879l-1.88-0.396
				L300.88,105.389z"/>
			<path fill="#424242" d="M326.331,117.508l-0.42,0.816h-7.396c0.074,2.227,1.138,4.502,3.364,4.502
				c2.103,0,3.686-1.014,3.686-1.014l0.693,1.138c0,0-1.583,1.484-4.378,1.484c-3.735,0-5.689-2.572-5.689-6.308
				c0-3.711,1.756-6.383,5.393-6.383C325.044,111.744,326.331,114.045,326.331,117.508z M318.539,117.087l5.491-0.42
				c0,0,0.025-0.372,0.025-0.494c0-1.757-0.816-3.142-2.573-3.142C319.455,113.031,318.712,115.035,318.539,117.087z"/>
			<path fill="#424242" d="M345.003,114.096c0.692-1.213,2.004-2.352,3.883-2.352c3.141,0,3.834,2.203,3.834,5.616v2.695
				c0,1.237,0.173,2.622,0.173,2.622l1.929,0.173l-0.174,1.46c0,0-1.211-0.124-3.19-0.124c-0.495,0-2.523,0.124-2.523,0.124
				l-0.124-1.237l1.658-0.396c0.124-0.544,0.248-1.261,0.248-1.879v-3.438c0-2.079-0.396-4.107-2.251-4.107
				c-1.806,0-2.993,1.608-3.067,3.935v0.173v2.695c0,1.237,0.173,2.622,0.173,2.622l1.93,0.173l-0.173,1.46
				c0,0-1.212-0.124-3.191-0.124c-0.495,0-2.522,0.124-2.522,0.124l-0.124-1.237l1.657-0.396c0.124-0.544,0.248-1.261,0.248-1.879
				v-3.438c0-2.079-0.396-4.107-2.25-4.107c-1.855,0-3.043,1.732-3.067,4.157v2.646c0,1.237,0.173,2.622,0.173,2.622l1.929,0.173
				l-0.173,1.46c0,0-1.212-0.124-3.19-0.124c-0.495,0-2.746,0.124-2.746,0.124l-0.124-1.237l1.879-0.396
				c0,0,0.198-1.188,0.248-1.757v-5.466c0-0.494-0.248-1.88-0.248-1.88l-1.879-0.396l0.124-1.311c0,0,1.781,0.098,2.275,0.098h0.89
				l0.47,0.446l0.148,1.583c0.594-1.138,1.855-2.252,3.71-2.252C343.519,111.744,344.533,112.61,345.003,114.096z"/>
			<path fill="#424242" d="M363.947,122.232c-0.643,1.263-2.325,2.202-3.934,2.202c-2.201,0-3.586-1.237-3.586-3.167
				c0-1.779,1.088-2.918,3.314-3.288l3.958-0.67v-0.815c0-2.301-0.767-3.412-2.325-3.412c-0.816,0-1.731,0.196-2.35,0.493
				l-0.173,1.039v1.014l-1.435,0.074l-0.272-3.364c1.484-0.395,2.993-0.594,4.477-0.594c2.943,0,4.081,1.46,4.081,5.244v3.067
				c0,1.237,0.248,2.622,0.248,2.622l1.707,0.173l-0.173,1.46c0,0-1.212-0.124-3.19-0.124L363.947,122.232z M360.163,119.239
				c-0.99,0.174-1.558,0.791-1.558,1.657c0,1.237,0.643,1.954,1.805,1.954c1.658,0,3.042-1.187,3.29-2.795v-1.483L360.163,119.239z"
				/>
			<path fill="#424242" d="M369.337,111.869c0,0,1.781,0.098,2.276,0.098h0.89l0.47,0.446l0.148,1.583
				c0.594-1.138,1.88-2.252,3.76-2.252c3.413,0,4.18,2.203,4.18,5.616v2.695c0,1.237,0.173,2.622,0.173,2.622l1.929,0.173
				l-0.173,1.46c0,0-1.211-0.124-3.19-0.124c-0.495,0-2.523,0.124-2.523,0.124l-0.123-1.237l1.657-0.396
				c0.124-0.544,0.248-1.261,0.248-1.879v-3.438c0-2.079-0.47-4.107-2.548-4.107c-1.954,0-3.141,1.732-3.166,4.157v2.646
				c0,1.237,0.173,2.622,0.173,2.622l1.929,0.173l-0.173,1.46c0,0-1.212-0.124-3.19-0.124c-0.496,0-2.746,0.124-2.746,0.124
				l-0.124-1.237l1.88-0.396c0,0,0.198-1.188,0.248-1.757v-5.466c0-0.494-0.248-1.88-0.248-1.88l-1.88-0.396L369.337,111.869z"/>
			<path fill="#424242" d="M392.214,115.876c0.174-0.471,0.495-1.608,0.668-2.399l-1.806-0.297l0.124-1.286
				c0,0,1.657,0.073,2.152,0.073c1.879,0,2.844-0.122,2.844-0.122l0.074,1.434l-1.312,0.198c-0.495,1.014-1.088,2.325-1.286,2.818
				L388.579,130l-3.982-0.272l0.198-1.435l0.99,0.024c0.322,0,1.138-0.148,1.657-0.248c0.42-0.593,0.792-1.31,0.94-1.682
				l0.792-2.201l-3.538-8.236c-0.247-0.618-0.791-1.657-1.261-2.474l-1.212-0.297l0.124-1.286c0,0,1.533,0.073,2.029,0.073
				c1.979,0,3.389-0.122,3.389-0.122l0.074,1.434l-1.781,0.174c0.173,0.741,0.42,1.632,0.618,2.103l2.449,6.059L392.214,115.876z"/>
			<path fill="#424242" d="M410.985,123.147c-0.792,0.618-1.683,1.287-2.919,1.287c-2.349,0-3.067-1.386-3.067-4.106v-7.024h-1.903
				l-0.073-1.04c0.814-0.271,1.407-0.37,1.977-0.717c0.199-0.247,1.139-2.227,1.139-2.227l0.865,0.101v2.546h3.463l-0.123,1.337
				h-3.34v7.617c0,1.237,0.42,1.93,1.336,1.93c0.89,0,1.953-0.717,1.953-0.717L410.985,123.147z"/>
			<path fill="#424242" d="M416.079,114.045c0.964-1.582,2.202-2.301,3.982-2.301c0.915,0,1.683,0.248,1.683,0.248l-0.248,4.08
				l-1.435-0.073v-1.311c0-0.148-0.173-0.717-0.347-1.236h-0.098c-2.277,0.024-3.217,1.384-3.314,3.71v2.894
				c0,1.237,0.173,2.622,0.173,2.622l2.424,0.173l-0.173,1.46c0,0-1.708-0.124-3.686-0.124c-0.495,0-2.746,0.124-2.746,0.124
				l-0.123-1.237l1.88-0.396c0,0,0.246-1.385,0.246-1.879v-5.344c0-0.494-0.246-1.88-0.246-1.88l-1.88-0.396l0.123-1.311
				c0,0,1.781,0.098,2.274,0.098h0.892l0.47,0.446L416.079,114.045z"/>
			<path fill="#424242" d="M433.096,117.508l-0.421,0.816h-7.396c0.074,2.227,1.139,4.502,3.365,4.502
				c2.102,0,3.685-1.014,3.685-1.014l0.692,1.138c0,0-1.583,1.484-4.377,1.484c-3.735,0-5.688-2.572-5.688-6.308
				c0-3.711,1.754-6.383,5.391-6.383C431.809,111.744,433.096,114.045,433.096,117.508z M425.304,117.087l5.49-0.42
				c0,0,0.025-0.372,0.025-0.494c0-1.757-0.817-3.142-2.571-3.142C426.219,113.031,425.478,115.035,425.304,117.087z"/>
			<path fill="#424242" d="M442.667,122.232c-0.644,1.263-2.326,2.202-3.934,2.202c-2.202,0-3.587-1.237-3.587-3.167
				c0-1.779,1.089-2.918,3.314-3.288l3.958-0.67v-0.815c0-2.301-0.767-3.412-2.326-3.412c-0.814,0-1.73,0.196-2.349,0.493
				l-0.174,1.039v1.014l-1.436,0.074l-0.271-3.364c1.483-0.395,2.992-0.594,4.477-0.594c2.944,0,4.081,1.46,4.081,5.244v3.067
				c0,1.237,0.248,2.622,0.248,2.622l1.707,0.173l-0.174,1.46c0,0-1.212-0.124-3.19-0.124L442.667,122.232z M438.882,119.239
				c-0.99,0.174-1.56,0.791-1.56,1.657c0,1.237,0.644,1.954,1.807,1.954c1.658,0,3.042-1.187,3.29-2.795v-1.483L438.882,119.239z"/>
			<path fill="#424242" d="M455.946,112.166l-0.297,3.536l-1.436-0.074v-0.89c0-0.248-0.171-0.842-0.345-1.41
				c-0.521-0.223-0.965-0.297-1.657-0.297c-1.212,0-2.004,0.593-2.004,1.607c0,2.523,6.308,2.275,6.308,6.184
				c0,2.597-1.658,3.612-4.354,3.612c-2.449,0-4.081-0.966-4.081-0.966l0.271-3.363l1.436,0.074v0.94
				c0,0.247,0.173,0.891,0.371,1.46c0.568,0.444,1.286,0.592,2.078,0.592c1.385,0,2.251-0.567,2.251-1.879
				c0-2.597-6.258-2.251-6.258-6.258c0-2.078,1.705-3.291,4.007-3.291C453.424,111.744,454.76,111.918,455.946,112.166z"/>
			<path fill="#424242" d="M465.864,111.869c0,0,1.656,0.098,2.151,0.098h1.436l0.47,0.446c0,0-0.173,2.548-0.173,3.784v3.858
				c0,1.237,0.246,2.622,0.246,2.622l1.707,0.173l-0.173,1.46c0,0-1.212-0.124-3.19-0.124l-0.322-1.929
				c-0.47,0.815-1.533,2.177-3.834,2.177c-3.413,0-4.007-2.276-4.007-5.615v-3.364c0-0.494-0.247-1.88-0.247-1.88l-1.633-0.396
				l0.124-1.311c0,0,1.534,0.098,2.028,0.098h1.434l0.472,0.446c0,0-0.174,2.548-0.174,3.784v3.463c0,1.83,0.618,3.19,2.449,3.19
				c2.028,0,3.115-1.881,3.115-3.857v-3.538c0-0.494-0.246-1.88-0.246-1.88l-1.756-0.396L465.864,111.869z"/>
			<path fill="#424242" d="M477.412,114.045c0.965-1.582,2.202-2.301,3.982-2.301c0.916,0,1.683,0.248,1.683,0.248l-0.248,4.08
				l-1.435-0.073v-1.311c0-0.148-0.173-0.717-0.347-1.236h-0.098c-2.276,0.024-3.216,1.384-3.314,3.71v2.894
				c0,1.237,0.172,2.622,0.172,2.622l2.425,0.173l-0.173,1.46c0,0-1.706-0.124-3.687-0.124c-0.493,0-2.745,0.124-2.745,0.124
				l-0.123-1.237l1.88-0.396c0,0,0.247-1.385,0.247-1.879v-5.344c0-0.494-0.247-1.88-0.247-1.88l-1.88-0.396l0.123-1.311
				c0,0,1.781,0.098,2.275,0.098h0.892l0.469,0.446L477.412,114.045z"/>
			<path fill="#424242" d="M494.429,117.508l-0.42,0.816h-7.396c0.075,2.227,1.139,4.502,3.364,4.502
				c2.103,0,3.686-1.014,3.686-1.014l0.693,1.138c0,0-1.584,1.484-4.379,1.484c-3.734,0-5.688-2.572-5.688-6.308
				c0-3.711,1.756-6.383,5.392-6.383C493.144,111.744,494.429,114.045,494.429,117.508z M486.638,117.087l5.49-0.42
				c0,0,0.025-0.372,0.025-0.494c0-1.757-0.816-3.142-2.572-3.142C487.552,113.031,486.812,115.035,486.638,117.087z"/>
			<path fill="#424242" d="M504.271,112.166l-0.297,3.536l-1.436-0.074v-0.89c0-0.248-0.172-0.842-0.346-1.41
				c-0.52-0.223-0.964-0.297-1.656-0.297c-1.213,0-2.005,0.593-2.005,1.607c0,2.523,6.308,2.275,6.308,6.184
				c0,2.597-1.657,3.612-4.354,3.612c-2.448,0-4.081-0.966-4.081-0.966l0.271-3.363l1.436,0.074v0.94
				c0,0.247,0.173,0.891,0.371,1.46c0.568,0.444,1.286,0.592,2.077,0.592c1.386,0,2.252-0.567,2.252-1.879
				c0-2.597-6.258-2.251-6.258-6.258c0-2.078,1.705-3.291,4.006-3.291C501.748,111.744,503.085,111.918,504.271,112.166z"/>
			<path fill="#424242" d="M518.518,124.435c-3.761,0-5.689-2.572-5.689-6.333c0-3.783,1.929-6.357,5.689-6.357
				c3.808,0,5.688,2.523,5.688,6.357C524.206,121.862,522.276,124.435,518.518,124.435z M518.518,113.155
				c-2.548,0-3.365,2.399-3.365,4.946c0,2.548,0.817,4.923,3.365,4.923c2.546,0,3.363-2.375,3.363-4.923
				C521.881,115.555,521.063,113.155,518.518,113.155z"/>
			<path fill="#424242" d="M535.36,105.389l-0.273,3.339l-1.31-0.075v-0.89c0-0.222-0.149-0.767-0.298-1.286
				c-0.198,0-0.494-0.025-0.667-0.025c-2.228,0-2.35,1.509-2.35,3.735v1.78h3.462l-0.124,1.337h-3.338v6.752
				c0,1.237,0.171,2.622,0.171,2.622l2.425,0.173l-0.172,1.46c0,0-1.708-0.124-3.686-0.124c-0.495,0-2.746,0.124-2.746,0.124
				l-0.124-1.237l1.879-0.396c0,0,0.248-1.385,0.248-1.879v-7.495h-1.904l-0.074-1.04c0.817-0.271,1.409-0.37,1.979-0.717v-2.126
				c0-2.598,1.509-4.281,4.354-4.281C533.826,105.14,535.36,105.389,535.36,105.389z"/>
			<path fill="#424242" d="M547.872,108.083l-1.928,0.174c-0.05,0.347-0.173,1.583-0.173,2.623v9.176
				c0,1.039,0.123,2.275,0.173,2.622l2.226,0.173l-0.173,1.46c0,0-1.633-0.124-3.611-0.124c-0.495,0-2.919,0.124-2.919,0.124
				l-0.124-1.237l1.955-0.396c0.05-0.321,0.223-1.459,0.223-1.879v-10.661c0-0.421-0.173-1.56-0.223-1.881l-1.906-0.297l0.125-1.335
				c0,0,2.374,0.124,2.869,0.124c1.979,0,3.389-0.124,3.389-0.124L547.872,108.083z"/>
			<path fill="#424242" d="M550.396,111.869c0,0,1.78,0.098,2.274,0.098h0.891l0.47,0.446l0.148,1.583
				c0.595-1.138,1.881-2.252,3.761-2.252c3.413,0,4.18,2.203,4.18,5.616v2.695c0,1.237,0.173,2.622,0.173,2.622l1.931,0.173
				l-0.174,1.46c0,0-1.212-0.124-3.19-0.124c-0.495,0-2.523,0.124-2.523,0.124l-0.124-1.237l1.656-0.396
				c0.125-0.544,0.248-1.261,0.248-1.879v-3.438c0-2.079-0.47-4.107-2.547-4.107c-1.954,0-3.142,1.732-3.166,4.157v2.646
				c0,1.237,0.172,2.622,0.172,2.622l1.93,0.173l-0.173,1.46c0,0-1.212-0.124-3.189-0.124c-0.495,0-2.746,0.124-2.746,0.124
				l-0.124-1.237l1.879-0.396c0,0,0.199-1.188,0.248-1.757v-5.466c0-0.494-0.248-1.88-0.248-1.88l-1.879-0.396L550.396,111.869z"/>
			<path fill="#424242" d="M573.173,123.147c-0.792,0.618-1.683,1.287-2.919,1.287c-2.35,0-3.067-1.386-3.067-4.106v-7.024h-1.904
				l-0.073-1.04c0.814-0.271,1.408-0.37,1.978-0.717c0.198-0.247,1.138-2.227,1.138-2.227l0.866,0.101v2.546h3.463l-0.124,1.337
				h-3.339v7.617c0,1.237,0.42,1.93,1.336,1.93c0.89,0,1.953-0.717,1.953-0.717L573.173,123.147z"/>
			<path fill="#424242" d="M584.599,117.508l-0.42,0.816h-7.396c0.075,2.227,1.139,4.502,3.364,4.502
				c2.103,0,3.686-1.014,3.686-1.014l0.691,1.138c0,0-1.582,1.484-4.377,1.484c-3.734,0-5.688-2.572-5.688-6.308
				c0-3.711,1.755-6.383,5.392-6.383C583.313,111.744,584.599,114.045,584.599,117.508z M576.807,117.087l5.491-0.42
				c0,0,0.025-0.372,0.025-0.494c0-1.757-0.816-3.142-2.572-3.142C577.722,113.031,576.98,115.035,576.807,117.087z"/>
			<path fill="#424242" d="M590.335,114.045c0.966-1.582,2.202-2.301,3.983-2.301c0.915,0,1.683,0.248,1.683,0.248l-0.248,4.08
				l-1.435-0.073v-1.311c0-0.148-0.173-0.717-0.347-1.236h-0.099c-2.276,0.024-3.216,1.384-3.314,3.71v2.894
				c0,1.237,0.173,2.622,0.173,2.622l2.425,0.173l-0.174,1.46c0,0-1.706-0.124-3.686-0.124c-0.494,0-2.746,0.124-2.746,0.124
				l-0.122-1.237l1.879-0.396c0,0,0.248-1.385,0.248-1.879v-5.344c0-0.494-0.248-1.88-0.248-1.88l-1.879-0.396l0.122-1.311
				c0,0,1.782,0.098,2.275,0.098h0.891l0.471,0.446L590.335,114.045z"/>
			<path fill="#424242" d="M597.235,111.869c0,0,1.781,0.098,2.274,0.098h0.892l0.47,0.446l0.148,1.583
				c0.594-1.138,1.88-2.252,3.76-2.252c3.413,0,4.181,2.203,4.181,5.616v2.695c0,1.237,0.173,2.622,0.173,2.622l1.93,0.173
				l-0.174,1.46c0,0-1.212-0.124-3.19-0.124c-0.495,0-2.522,0.124-2.522,0.124l-0.125-1.237l1.658-0.396
				c0.123-0.544,0.246-1.261,0.246-1.879v-3.438c0-2.079-0.469-4.107-2.547-4.107c-1.954,0-3.142,1.732-3.165,4.157v2.646
				c0,1.237,0.171,2.622,0.171,2.622l1.931,0.173l-0.174,1.46c0,0-1.212-0.124-3.189-0.124c-0.495,0-2.746,0.124-2.746,0.124
				l-0.124-1.237l1.88-0.396c0,0,0.198-1.188,0.247-1.757v-5.466c0-0.494-0.247-1.88-0.247-1.88l-1.88-0.396L597.235,111.869z"/>
			<path fill="#424242" d="M622.685,117.508l-0.42,0.816h-7.396c0.073,2.227,1.138,4.502,3.364,4.502
				c2.103,0,3.685-1.014,3.685-1.014l0.692,1.138c0,0-1.583,1.484-4.377,1.484c-3.735,0-5.69-2.572-5.69-6.308
				c0-3.711,1.757-6.383,5.393-6.383C621.399,111.744,622.685,114.045,622.685,117.508z M614.894,117.087l5.491-0.42
				c0,0,0.024-0.372,0.024-0.494c0-1.757-0.816-3.142-2.571-3.142C615.809,113.031,615.067,115.035,614.894,117.087z"/>
			<path fill="#424242" d="M632.083,123.147c-0.792,0.618-1.682,1.287-2.918,1.287c-2.35,0-3.068-1.386-3.068-4.106v-7.024h-1.904
				l-0.074-1.04c0.816-0.271,1.41-0.37,1.979-0.717c0.198-0.247,1.138-2.227,1.138-2.227l0.866,0.101v2.546h3.463l-0.124,1.337
				h-3.339v7.617c0,1.237,0.42,1.93,1.336,1.93c0.89,0,1.954-0.717,1.954-0.717L632.083,123.147z"/>
			<path fill="#424242" d="M651.078,106.946l0.173,3.364l-1.435,0.124c-0.051-0.396-0.174-0.965-0.272-1.337
				c-0.024-0.173-0.248-0.52-0.494-0.841c-0.546-0.049-1.312-0.123-2.004-0.123h-3.24c-0.05,0.519-0.174,1.781-0.174,2.746v3.71
				c0.421,0.024,0.866,0.049,1.063,0.049h1.807c0.493,0,1.484-0.223,1.484-0.223l0.222-1.632l1.138,0.123
				c0,0-0.024,1.583-0.024,2.078c0,1.236,0.074,2.696,0.074,2.696l-1.188,0.148l-0.222-1.657c0,0-1.484-0.149-1.979-0.149h-1.312
				c-0.223,0-0.643,0.025-1.063,0.075v3.957c0,1.039,0.124,2.275,0.174,2.622l2.473,0.173l-0.172,1.46c0,0-1.882-0.124-3.86-0.124
				c-0.494,0-2.919,0.124-2.919,0.124l-0.122-1.237l1.953-0.396c0.051-0.321,0.223-1.459,0.223-1.879v-10.661
				c0-0.421-0.172-1.56-0.223-1.881l-1.904-0.297l0.124-1.335c0,0,2.374,0.124,2.868,0.124h5.541c0.495,0,2.82-0.249,2.82-0.249
				L651.078,106.946z"/>
			<path fill="#424242" d="M657.508,124.435c-3.762,0-5.691-2.572-5.691-6.333c0-3.783,1.93-6.357,5.691-6.357
				c3.808,0,5.688,2.523,5.688,6.357C663.196,121.862,661.267,124.435,657.508,124.435z M657.508,113.155
				c-2.549,0-3.365,2.399-3.365,4.946c0,2.548,0.816,4.923,3.365,4.923c2.546,0,3.363-2.375,3.363-4.923
				C660.871,115.555,660.054,113.155,657.508,113.155z"/>
			<path fill="#424242" d="M665.049,105.389c0,0,1.781,0.098,2.274,0.098h1.436l0.47,0.444c-0.074,0.769-0.173,2.624-0.173,3.786
				v10.339c0,1.089,0.124,2.424,0.149,2.622l1.929,0.173l-0.174,1.46c0,0-1.212-0.124-3.19-0.124c-0.495,0-2.745,0.124-2.745,0.124
				l-0.124-1.237l1.904-0.396c0.049-0.223,0.248-1.385,0.248-1.879v-11.825c0-0.493-0.248-1.879-0.248-1.879l-1.879-0.396
				L665.049,105.389z"/>
			<path fill="#424242" d="M672.541,105.389c0,0,1.782,0.098,2.276,0.098h1.435l0.47,0.444c-0.073,0.769-0.173,2.624-0.173,3.786
				v10.339c0,1.089,0.124,2.424,0.149,2.622l1.929,0.173l-0.172,1.46c0,0-1.213-0.124-3.192-0.124c-0.494,0-2.746,0.124-2.746,0.124
				l-0.123-1.237l1.904-0.396c0.049-0.223,0.248-1.385,0.248-1.879v-11.825c0-0.493-0.248-1.879-0.248-1.879l-1.879-0.396
				L672.541,105.389z M679.839,113.18l0.123-1.286c0,0,1.658,0.073,2.153,0.073c1.978,0,3.142-0.122,3.142-0.122l0.073,1.434
				l-1.855,0.198c-0.816,0.444-2.004,1.188-2.448,1.656l-2.005,2.152l3.39,3.711c0.272,0.297,1.41,1.089,2.227,1.707l1.559,0.147
				l-0.174,1.46c0,0-1.212-0.124-3.19-0.124l-2.522,0.051l-0.124-1.238l1.41-0.271l-1.262-1.385l-3.513-3.711l4.082-4.254
				L679.839,113.18z"/>
			<path fill="#424242" d="M686.936,105.389c0,0,1.781,0.098,2.275,0.098h1.435l0.471,0.444c-0.075,0.769-0.173,2.624-0.173,3.786
				v10.339c0,1.089,0.124,2.424,0.148,2.622l1.929,0.173l-0.173,1.46c0,0-1.213-0.124-3.19-0.124c-0.496,0-2.747,0.124-2.747,0.124
				l-0.122-1.237l1.904-0.396c0.049-0.223,0.247-1.385,0.247-1.879v-11.825c0-0.493-0.247-1.879-0.247-1.879l-1.88-0.396
				L686.936,105.389z"/>
			<path fill="#424242" d="M700.761,124.311c0,0-1.212-0.124-3.189-0.124c-0.495,0-2.746,0.124-2.746,0.124l-0.124-1.237
				l1.881-0.396c0,0,0.246-1.385,0.246-1.879v-5.344c0-0.494-0.246-1.88-0.246-1.88l-1.881-0.396l0.124-1.311
				c0,0,1.781,0.098,2.274,0.098h1.436l0.47,0.446c0,0-0.172,2.548-0.172,3.784v3.858c0,1.237,0.172,2.622,0.172,2.622l1.93,0.173
				L700.761,124.311z M699.302,107.985c0,0.939-0.519,1.583-1.459,1.583c-0.939,0-1.46-0.644-1.46-1.583s0.521-1.607,1.46-1.607
				C698.758,106.378,699.302,106.972,699.302,107.985z"/>
			<path fill="#424242" d="M711.422,105.389l-0.272,3.339l-1.311-0.075v-0.89c0-0.222-0.148-0.767-0.297-1.286
				c-0.198,0-0.495-0.025-0.669-0.025c-2.226,0-2.349,1.509-2.349,3.735v1.78h3.463l-0.124,1.337h-3.339v6.752
				c0,1.237,0.172,2.622,0.172,2.622l2.425,0.173l-0.173,1.46c0,0-1.707-0.124-3.687-0.124c-0.494,0-2.745,0.124-2.745,0.124
				l-0.124-1.237l1.881-0.396c0,0,0.247-1.385,0.247-1.879v-7.495h-1.905l-0.073-1.04c0.816-0.271,1.409-0.37,1.979-0.717v-2.126
				c0-2.598,1.509-4.281,4.353-4.281C709.888,105.14,711.422,105.389,711.422,105.389z"/>
			<path fill="#424242" d="M721.562,117.508l-0.42,0.816h-7.396c0.074,2.227,1.139,4.502,3.364,4.502
				c2.103,0,3.686-1.014,3.686-1.014l0.691,1.138c0,0-1.582,1.484-4.377,1.484c-3.735,0-5.689-2.572-5.689-6.308
				c0-3.711,1.756-6.383,5.392-6.383C720.276,111.744,721.562,114.045,721.562,117.508z M713.77,117.087l5.491-0.42
				c0,0,0.024-0.372,0.024-0.494c0-1.757-0.815-3.142-2.571-3.142C714.685,113.031,713.943,115.035,713.77,117.087z"/>
			<path fill="#424242" d="M726.655,122.728c0,1.014-0.569,1.707-1.583,1.707c-1.015,0-1.583-0.693-1.583-1.707
				c0-1.015,0.568-1.731,1.583-1.731C726.061,120.996,726.655,121.64,726.655,122.728z"/>
		</g>
	</g>
	<g>
		<rect x="81.54" y="34.115" fill="#26407F" width="3.556" height="3.442"/>
		<rect x="60.195" y="34.115" fill="#4C80FE" width="3.67" height="10.559"/>
		<rect x="60.195" y="59.133" fill="#4C80FE" width="3.67" height="7"/>
		<rect x="109.772" y="83.806" fill="#6C8BD4" width="3.556" height="7"/>
		<path fill="#4C80FE" d="M52.965,73.249v14.114h-3.561v-21.23h7.117v-3.557h-7.117v-7h7.117v-3.558h-7.117v-7.344h7.117V34.115
			H45.965v74.71h10.556V97.922h-7.117v-7.116h7.117V76.69h3.674v14.115h3.67V73.249H52.965z M49.405,37.558h3.561v3.559h-3.561
			V37.558L49.405,37.558z M52.965,101.481v3.784h-3.561v-3.784H52.965L52.965,101.481z"/>
		<polygon fill="#1240AA" points="70.982,27.115 70.982,108.825 67.424,108.825 67.424,30.673 38.964,30.673 38.964,27.115 		"/>
		<polygon fill="#1240AA" points="92.099,27.115 92.099,108.825 88.541,108.825 88.541,30.673 77.985,30.673 77.985,108.825 
			74.425,108.825 74.425,27.115 		"/>
		<rect x="88.541" y="112.38" fill="#1240AA" width="3.558" height="3.445"/>
		<rect x="109.772" y="105.266" fill="#6C8BD4" width="3.556" height="10.56"/>
		<path fill="#6C8BD4" d="M117.116,41.117v10.901h7.116v7.115h-7.116v14.116h-3.789V59.133h-3.556V76.69h10.903V62.576h3.557v21.229
			h-7.116v3.558h7.116v7.001h-7.116v3.558h7.116v7.344h-7.116v10.56h10.558V41.117H117.116z M124.232,112.38h-3.557v-3.555h3.557
			V112.38L124.232,112.38z M124.232,48.461h-3.557v-3.787h3.557V48.461L124.232,48.461z"/>
		<path fill="#1240AA" d="M95.655,27.115v10.443h3.56v-6.885h3.44v6.885h3.558v-6.885h10.903v6.885h10.558v-6.885h3.442v85.152
			h3.561v-88.71H95.655z M124.232,34.115h-3.557v-3.442h3.557V34.115L124.232,34.115z"/>
		<path fill="#26407F" d="M74.425,119.269h-3.443v-6.889h-3.558v6.889H56.521v-6.889H45.965v6.889h-3.444V34.115h-3.557v88.711
			h39.021V112.38h-3.56V119.269z M49.405,119.269v-3.443h3.561v3.443H49.405L49.405,119.269z"/>
		<polygon fill="#26407F" points="95.655,119.269 85.096,119.269 85.096,41.117 81.54,41.117 81.54,122.826 99.215,122.826 
			99.215,41.117 95.655,41.117 		"/>
		<polygon fill="#26407F" points="134.677,119.269 134.677,122.826 102.655,122.826 102.655,41.117 106.213,41.117 106.213,119.269 
					"/>
		<path fill="#06266F" d="M31.847,20v109.941h109.944V20H31.847z M138.233,126.385H35.407V23.558h102.826"/>
	</g>
</g>
</svg>
